<?xml version="1.0" encoding="utf-8"?>
<!-- Generator: Adobe Illustrator 23.0.3, SVG Export Plug-In . SVG Version: 6.00 Build 0)  -->
<svg version="1.1" id="Lager_1" xmlns="http://www.w3.org/2000/svg" xmlns:xlink="http://www.w3.org/1999/xlink" x="0px" y="0px"
	 viewBox="0 0 183 136" style="enable-background:new 0 0 183 136;" xml:space="preserve">
<style type="text/css">
	.st0{fill:#FFFFFF;}
</style>
<title>SMI_logo</title>
<desc>Created with Sketch.</desc>
<g id="Page-1">
	<g transform="translate(-81.000000, -19.000000)">
		<g id="Group-6">
			<g>
				<path class="st0" d="M164.7,62.1c-0.3,0-0.4,0.1-0.6,0.2c-0.5,0.2-0.9,0.5-1.4,0.7c-1.9,1-3.8,1.9-5.7,2.9
					c-7.1,3.9-13.8,8.5-20.1,13.5c-5,4-9.7,8.3-14.1,12.9c-2.9,3-5.6,6.2-8.1,9.6c-1.9,2.6-3.6,5.2-5,8c-1.2,2.3-2.2,4.7-2.8,7.2
					c-0.4,1.6-0.5,3.3-0.3,4.9c0.4,2.5,1.7,4.3,3.9,5.5c1.4,0.7,2.9,1,4.4,1.1c1.8,0.1,3.6,0,5.4-0.2c0.3,0,0.5-0.1,0.8-0.1
					c0-0.2,0.1-0.3,0.1-0.5c0.1-0.3,0.1-0.7,0.2-1c0.4-1.4,1.3-2.4,2.6-3c1.2-0.6,2.4-0.7,3.7-0.5c0.6,0.1,1.1,0.1,1.7,0
					c0.9-0.2,1.7,0.2,2.1,1c0.1,0.2,0.1,0.4,0.2,0.5c0,0.1,0.1,0.2,0.1,0.3c0.5-0.2,1-0.4,1.5-0.6c4.6-1.9,9.1-4.2,13.4-6.8
					c3-1.8,6-3.7,8.9-5.7c0.2-0.1,0.3-0.2,0.5-0.3c0.1,0,0.1,0,0.1,0c0.3,0.1,0.6,0.2,0.8,0.4c4,1.7,8.2,2.7,12.6,3
					c2.1,0.1,4.2,0.1,6.2-0.1c1.9-0.2,3.9-0.4,5.7-0.9c8.1-2,15-6.1,20.6-12.3c0.1-0.1,0.2-0.3,0.4-0.4c0.3-0.3,0.6-0.4,1-0.4
					c0.7,0,1.5-0.1,2.2-0.1c1.7,0,3.4-0.1,5.1-0.1c4.4-0.1,8.7-0.2,13.1-0.2c1.4,0,2.7-0.1,4.1-0.1c0.8,0,1.6-0.1,2.4-0.1
					c1.5-0.1,2.9-0.2,4.4-0.3c1.1-0.1,2.1-0.2,3.2-0.2c1-0.1,2-0.2,3.1-0.3c1.2-0.1,2.5-0.2,3.7-0.4c1.8-0.2,3.7-0.5,5.5-0.8
					c1.9-0.4,3.9-0.8,5.8-1.4c1.6-0.5,3.2-1.2,4.7-2c0.6-0.4,1.2-0.8,1.8-1.3c1.3-1.3,1.9-2.9,1.8-4.7c-0.1-1.4-0.4-2.8-1-4.1
					c-0.4-1.1-1-2.1-1.5-3.1c-1.2-2.1-2.4-4.2-4-6.1c-1.7-2-3.6-3.8-5.8-5.2c-1.8-1.1-3.6-2-5.6-2.7c-3.9-1.4-7.9-2.2-12-2.7
					c-1-0.1-2.1-0.3-3.2-0.4c-1.3-0.1-2.6-0.3-3.9-0.4c-1.3-0.1-2.6-0.2-3.9-0.3c-1.7-0.1-3.5-0.2-5.2-0.3c-2-0.1-4-0.2-6-0.3
					c-0.1,0-0.2,0-0.3,0c-0.4,0-0.7,0.1-1,0.3c-0.1,0.1-0.2,0.2-0.3,0.2c-2.1,1.9-4.3,3.8-6.6,5.6c-1.2,1-2.5,1.9-3.7,2.9
					c-0.1,0.1-0.3,0.1-0.3,0.3c0.1,0.2,0.2,0.1,0.4,0.1c0.5,0,1,0.1,1.5,0.1c2,0.1,3.9,0.2,5.9,0.4c0.5,0,0.9,0.1,1.4,0.1
					c1.5,0.2,3,0.5,4.5,0.8c1,0.2,1.9,0.5,2.8,1c1.3,0.7,2.3,1.7,2.8,3.1c0.2,0.5,0.3,1,0.4,1.5c0.3,1.5-0.1,2.8-1.2,3.9
					c-0.7,0.7-1.6,1.2-2.6,1.5c-1.5,0.4-3,0.7-4.5,1.1c-0.2,0-0.3,0.1-0.5,0c0-0.1,0-0.2,0.1-0.4c0.1-0.3,0.1-0.6,0.2-0.9
					c0.7-2.8,1.2-5.7,1.2-8.6c0-0.7,0-0.8-0.7-0.9c-0.9-0.2-1.9-0.4-2.8-0.6c-0.3,0-0.5-0.1-0.8,0c0,0.2,0,0.3,0,0.4
					c0,1.2-0.1,2.4-0.2,3.6c-0.2,1.9-0.5,3.7-1,5.5c-2.4,8.9-8.1,16.5-16,21.2c-5,3-10.4,4.7-16.3,5c-1.7,0.1-3.5,0.1-5.2-0.1
					c-1.4-0.1-2.8-0.3-4.1-0.6c-3.7-0.8-7.1-2.1-10.4-4c-6.1-3.5-10.7-8.3-13.9-14.5c-0.9-1.7-1.6-3.5-2.3-5.3
					c-0.1-0.2-0.1-0.3-0.2-0.5c-0.1,0.1-0.3,0.2-0.4,0.3c-0.5,0.5-1,1-1.5,1.6c-2.8,3.2-5.3,6.7-7.5,10.3c-0.3,0.5-0.6,1.1-0.9,1.7
					c-0.2,0.3-0.3,0.6-0.4,0.9c0,0.1,0,0.2-0.1,0.3c0.4,0.1,0.8,0.1,1.1,0.1c3.9,0,7.8,0,11.7,0c0.2,0,0.4,0,0.6,0
					c0.5,0,1,0.2,1.4,0.5c0.2,0.2,0.4,0.3,0.5,0.5c2.9,3.2,6.3,5.9,10.1,8c0.2,0.1,0.5,0.3,0.7,0.4c0.1,0,0.1,0.1,0.3,0.2
					c-0.2,0.1-0.4,0.2-0.6,0.3c-1.5,0.7-3,1.4-4.4,2.1c-2.6,1.2-5.2,2.3-7.9,3.1c-2.6,0.8-5.3,1.4-8.1,1.5c-1.5,0-2.9,0-4.4-0.4
					c-1.2-0.3-2.3-0.8-3.3-1.7c-1.4-1.2-2.1-2.8-2.2-4.7c-0.1-1.3,0-2.5,0.2-3.7c0.3-1.4,0.7-2.7,1.3-4c1.1-2.7,2.5-5.2,4.1-7.7
					c2.4-3.7,5.2-7.2,8.2-10.5c6.1-6.7,12.9-12.6,20.2-17.8c2.3-1.7,4.7-3.3,7.2-4.9C164.4,62.3,164.5,62.2,164.7,62.1z M158.1,63.4
					c0,0,0-0.1,0-0.1c-0.2,0-0.5,0-0.7,0c-3.9-0.1-7.9-0.2-11.8-0.3c-2.5-0.1-5.1-0.2-7.6-0.7c-0.8-0.1-1.5-0.3-2.3-0.5
					c-0.7-0.3-1.3-0.6-1.8-1.1c-0.5-0.5-0.8-1-0.9-1.7c-0.1-1.6,0.3-2.9,1.6-3.9c0.3-0.2,0.7-0.5,1-0.6c1-0.5,2.2-0.9,3.3-1.1
					c0,0,0.1,0,0.2,0c-0.1,0.1-0.1,0.2-0.2,0.3c-0.3,0.5-0.6,1-0.9,1.5c-0.8,1.4-1.6,2.8-2.2,4.3c-0.1,0.1-0.1,0.3-0.1,0.4
					c0.9,0.7,3.3,1.3,4.3,1.1c0.1-0.2,0.2-0.3,0.3-0.5c0.5-0.9,1-1.9,1.5-2.8c2.4-4,5.3-7.5,9.1-10.3c5.7-4.2,12.1-6.7,19.2-7.2
					c2.4-0.2,4.8-0.1,7.2,0.3c2.4,0.3,4.8,1,7.1,1.8c6.2,2.2,11.4,5.8,15.5,10.9c1.4,1.8,2.7,3.6,3.8,5.6c0.1,0.2,0.2,0.3,0.3,0.5
					c0.3-0.3,2.7-3.3,2.9-3.7c0-0.1-0.1-0.2-0.1-0.3c-0.1-0.1-0.1-0.2-0.2-0.3c0-0.1-0.1-0.2,0-0.3c0.3,0.1,0.5,0.2,0.8,0.3
					c0.1-0.1,0.2-0.2,0.3-0.4c0.9-1.3,1.8-2.5,2.6-3.9c0.7-1.1,1.3-2.2,1.8-3.3c0.1-0.1,0.2-0.2,0.1-0.4c-0.2-0.1-0.4-0.1-0.6-0.1
					c-3.1-0.1-6.1-0.2-9.2-0.3c-0.6,0-1.2,0-1.7-0.1c-0.5,0-0.9-0.2-1.3-0.5c-0.1-0.1-0.2-0.1-0.2-0.2c-3.7-3.4-8-6-12.7-7.7
					c-0.2-0.1-0.5-0.2-0.7-0.3c-0.1,0-0.1-0.1-0.2-0.1c0.2-0.2,0.4-0.3,0.6-0.4c1.3-0.6,2.7-1.3,4-1.9c2.5-1.2,5-2.2,7.6-3
					c2.7-0.8,5.4-1.5,8.2-1.7c1.4-0.1,2.9-0.1,4.3,0.2c1,0.2,1.9,0.5,2.8,1c1.4,0.8,2.4,2,3,3.5c0.3,0.7,0.4,1.4,0.4,2.2
					c0.1,1.2,0,2.4-0.3,3.6c-0.2,1.1-0.6,2.2-1,3.2c-1.1,2.9-2.6,5.6-4.2,8.2c-2.6,4-5.6,7.8-8.9,11.3c-4.7,5.1-9.8,9.8-15.3,14
					c-2.2,1.7-4.4,3.4-6.7,5c-1.6,1.1-3.3,2.2-4.9,3.2c-0.1,0.1-0.3,0.1-0.4,0.3c0.3,0,0.4-0.1,0.6-0.2c0.5-0.3,1-0.5,1.5-0.8
					c2-1,4-2,5.9-3c10.2-5.7,19.6-12.6,28.1-20.6c3.6-3.4,7.1-7,10.3-10.8c2.6-3.2,5.1-6.5,7.2-10c1.1-1.9,2.2-3.9,3-6
					c0.7-1.8,1.3-3.6,1.5-5.5c0.1-1.3,0.1-2.5-0.2-3.8c-0.5-2-1.6-3.5-3.3-4.6c-0.7-0.4-1.5-0.7-2.3-1c-1.5-0.4-3.1-0.5-4.7-0.5
					c-1.8,0-3.6,0.3-5.4,0.7c-2.9,0.6-5.8,1.5-8.6,2.5c-4.5,1.7-8.8,3.8-13,6.1c-4,2.2-7.9,4.7-11.7,7.4c-0.5,0.4-1,0.5-1.6,0.3
					c-0.1,0-0.2-0.1-0.3-0.1c-2.9-0.7-5.8-1.1-8.8-1.1c-2.9,0-5.8,0.3-8.6,0.8c-5.3,1.1-10.1,3.1-14.5,6.2c-1.3,0.9-2.6,2-3.9,3
					c-0.7,0.6-1.5,0.9-2.4,0.9c-0.7,0-1.4,0-2.1,0.1c-3.1,0.1-6.1,0.2-9.2,0.3c-2.1,0.1-4.1,0.1-6.2,0.3c-1.6,0.1-3.2,0.3-4.7,0.5
					c-1.8,0.2-3.6,0.5-5.4,0.8c-2,0.4-4,0.8-6,1.5c-1.5,0.5-3,1.1-4.4,1.9c-1.7,1-3.2,2.2-4.4,3.7c-1.8,2.2-3.2,4.7-4.3,7.3
					c-0.3,0.8-0.4,1.6-0.4,2.4c0,0.7,0.3,1.4,0.9,1.9c0.8,0.7,1.7,1.3,2.8,1.7c1.3,0.5,2.6,0.9,3.9,1.2c3,0.7,6,1.1,9.1,1.3
					c2.1,0.2,4.2,0.3,6.3,0.4c1.7,0.1,3.4,0.2,5.1,0.3c0.8,0,1.6,0.1,2.4,0.1c1.5,0.1,3,0.1,4.5,0.2c2.8,0.1,5.6,0.1,8.4,0.2
					c1,0,1.9,0,2.9,0.1c0.5,0,1-0.1,1.4-0.4c0.1-0.1,0.3-0.2,0.4-0.3c1.3-0.9,2.7-1.8,4-2.7c2.9-1.9,6-3.7,9-5.4
					C157.6,63.7,157.9,63.5,158.1,63.4z M126.3,79.6c-0.3,0-0.6,0-0.8,0c-12.6,0-25.3,0-37.9,0c-0.2,0-0.4,0-0.5,0
					c-0.4,0-0.7,0.1-0.9,0.4c-0.1,0.1-0.2,0.3-0.3,0.4c-0.4,0.8-0.9,1.6-1.3,2.3c-0.4,0.6-0.7,1.3-1.1,1.9c-0.7,1.2-1.2,2.5-1.4,3.9
					c-0.1,0.8-0.1,1.6,0,2.5c0.2,1.1,0.7,2,1.5,2.8c0.7,0.8,1.6,1.3,2.5,1.8c1.3,0.7,2.7,1.3,4.1,1.7c3.6,1.1,7.3,1.8,11,2.2
					c1.1,0.1,2.2,0.2,3.3,0.4c1.5,0.1,2.9,0.3,4.4,0.4c1.4,0.1,2.7,0.2,4.1,0.3c0.5,0,0.8-0.1,1.1-0.5c0-0.1,0.1-0.1,0.1-0.2
					c2.7-3.6,5.6-6.9,8.8-10.2c1.6-1.7,3.3-3.3,5-4.8c0.1-0.1,0.3-0.3,0.4-0.4c-0.7-0.6-1.3-1.3-1.6-2.2
					C126.3,81.5,126.3,80.6,126.3,79.6z M200.1,63.3c-0.5-0.1-0.9-0.1-1.3-0.1c-10.7,0-21.4,0-32.1,0c-0.1,0-0.2,0-0.4,0
					c-0.4,0-0.7,0.1-1,0.3c-0.3,0.2-0.7,0.4-1,0.7c-3.9,2.4-7.5,5-11.1,7.8c-0.2,0.1-0.3,0.3-0.4,0.4c-0.1,0.1-0.1,0.1-0.1,0.2
					c0.2,0,0.3,0,0.5,0c12,0,24,0,36,0.1c0.2,0,0.3,0,0.5,0c0.3,0,0.6-0.1,0.8-0.3c0.1-0.1,0.2-0.2,0.4-0.3c2-1.8,4-3.6,6-5.5
					c1-1,2-1.9,2.9-3C199.9,63.6,200,63.5,200.1,63.3z M217.9,57c0.1,0,0.2,0,0.2,0c7.9,0,15.9,0,23.8,0c0,0,0,0,0,0c0,0,0,0,0,0
					c0,0,0,0,0,0c0-0.1-0.1-0.2-0.1-0.3c-0.8-1.4-1.8-2.5-3-3.5c-1.2-1-2.5-1.8-3.9-2.4c-1.8-0.8-3.6-1.4-5.5-1.8
					c-1.1-0.3-2.3-0.5-3.4-0.7c-0.4-0.1-0.8,0-1,0.4c-0.1,0.1-0.1,0.2-0.2,0.2c-2.2,2.7-4.3,5.4-6.7,7.9
					C218.1,56.8,218,56.9,217.9,57z M166.8,128.7c0.1,0.1,0.2,0.2,0.2,0.2c0.1,0.2,0.2,0.4,0.3,0.7c1.1,2.6,2.1,5.2,3.2,7.8
					c0.1,0.2,0.1,0.3,0.2,0.5c0.2,0.3,0.6,0.3,0.8,0c0.1-0.1,0.1-0.2,0.2-0.4c1.1-2.7,2.3-5.4,3.4-8.1c0.1-0.2,0.2-0.5,0.3-0.7
					c0-0.1,0.1-0.1,0.2-0.1c0,0.1,0,0.1,0,0.2c0,2.7,0,5.4,0,8c0,0.1,0,0.2-0.1,0.3c-0.3,0.1-0.6,0.1-0.9,0.2
					c-0.1,0.5-0.1,0.5,0.1,0.8c0.8,0.1,3.2,0.1,3.7,0c0-0.2,0-0.5-0.1-0.8c-0.3-0.1-0.6-0.1-0.8-0.2c-0.1-0.2-0.1-0.5-0.1-0.7
					c0-3.2,0-6.4,0-9.6c0-0.1,0-0.2,0-0.4c0-0.1,0-0.2,0.1-0.3c0.2,0,0.4,0,0.5,0c0.3,0,0.4-0.2,0.4-0.4c0-0.4-0.1-0.5-0.5-0.6
					c0,0,0,0-0.1,0c-0.5,0-0.9,0-1.4,0c-0.4,0-0.7,0.2-0.9,0.5c-0.1,0.2-0.2,0.4-0.3,0.6c-1.2,2.8-2.4,5.7-3.5,8.5
					c-0.1,0.2-0.2,0.4-0.2,0.5c0,0.1-0.1,0.2-0.2,0.2c-0.2-0.2-0.3-0.5-0.4-0.7c-0.4-0.9-0.7-1.7-1.1-2.6c-0.8-2-1.7-4-2.5-6
					c-0.1-0.2-0.2-0.4-0.3-0.5c-0.1-0.2-0.3-0.3-0.5-0.3c-0.4,0-0.8,0-1.2,0c-0.2,0-0.5,0-0.7,0.1c-0.1,0.3-0.1,0.5,0,0.8
					c0.3,0,0.6,0.1,0.9,0.2c0,0.2,0,0.4,0,0.6c0,3.2,0,6.4,0,9.6c0,0.1,0,0.2,0,0.4c0,0.2-0.1,0.3-0.3,0.3c-0.2,0-0.4,0.1-0.6,0.1
					c-0.1,0.4-0.1,0.4,0,0.8c0.3,0.1,0.6,0,0.9,0c0.3,0,0.6,0,0.9,0c0.3,0,0.6,0.1,0.9-0.1c0-0.3,0-0.5-0.1-0.7
					c-0.2-0.1-0.4-0.1-0.6-0.2c-0.2-0.1-0.3-0.2-0.3-0.4c0-0.2,0-0.3,0-0.5c0-2.3,0-4.6,0-6.9C166.7,129.2,166.8,129,166.8,128.7z
					 M151.4,148.8c0.2-0.1,0.4-0.2,0.6-0.3c0.4-0.2,0.8-0.4,1.2-0.7c0.7-0.5,1.2-1.2,1.3-2c0.1-0.4,0-0.8,0-1.2
					c-0.2-0.9-0.7-1.6-1.6-1.9c-0.3-0.1-0.6-0.2-1-0.3c-1-0.2-2-0.3-3-0.3c-1.1,0-2.3,0-3.4,0c-0.6,0-0.9,0.1-0.7,0.8
					c0,0,0,0.1,0.1,0.1c0.2,0,0.5,0.1,0.7,0.1c0.1,0.4,0.1,0.7,0.1,1.1c0,2.7,0,5.5,0,8.2c0,0.4,0,0.9-0.1,1.3c0,0.1,0,0.2-0.1,0.3
					c-0.3,0.1-0.5,0.1-0.7,0.2c0,0.3-0.1,0.5,0,0.8c0.4,0,0.8,0,1.2,0c0.4,0,0.8,0,1.2,0c0.4,0,0.8,0.1,1.2-0.1c0-0.3,0.1-0.5,0-0.8
					c-0.2,0-0.3-0.1-0.5-0.1c-0.4,0-0.5-0.2-0.5-0.6c0,0,0-0.1,0-0.1c0-1.4,0-2.8,0-4.2c0-0.1,0-0.2,0-0.3c0.4-0.1,1.6-0.1,2.2,0
					c0.1,0.2,0.2,0.3,0.3,0.5c0.8,1.7,1.7,3.3,2.5,5c0.1,0.2,0.2,0.3,0.3,0.5c0.1,0.2,0.2,0.3,0.4,0.3c0.6,0,1.2,0,1.8,0
					c0.1,0,0.2,0,0.3-0.1c0-0.2,0-0.5-0.1-0.7c-0.2,0-0.3-0.1-0.5-0.1c-0.3-0.1-0.5-0.3-0.7-0.5c-0.1-0.1-0.1-0.2-0.2-0.3
					c-0.7-1.3-1.4-2.7-2.2-4C151.5,149.2,151.5,149,151.4,148.8z M146.3,126.2c0.1,0.2,0.1,0.4,0.1,0.6c0.1,2.2,0.1,4.3,0.1,6.5
					c0,1.1,0,2.1-0.1,3.2c0,0.2,0,0.4-0.1,0.6c-0.1,0-0.3,0-0.4,0.1c-0.4,0.1-0.5,0.2-0.4,0.6c0,0.1,0.1,0.2,0.1,0.3
					c0.1,0,0.2,0,0.3,0c1.4,0,2.8,0,4.2,0c1.3,0,2.5-0.4,3.6-1c1.3-0.7,2.2-1.9,2.6-3.3c0.3-1,0.4-2,0.3-3.1c-0.2-2.1-1.2-3.6-3-4.5
					c-0.3-0.2-0.6-0.3-1-0.4c-0.9-0.3-1.7-0.5-2.6-0.5c-1.3-0.1-2.5-0.1-3.8,0c-0.8,0-0.9,0.2-0.5,0.9
					C145.8,126.1,146.1,126.1,146.3,126.2z M217.2,138c0.3-0.9,0.5-1.8,0.7-2.7c0-0.1,0-0.1,0-0.2c0-0.2-0.1-0.3-0.2-0.3
					c-0.2-0.1-0.4-0.1-0.6,0.2c-0.1,0.3-0.3,0.6-0.5,0.9c-0.6,0.9-1.4,1.4-2.5,1.4c-1,0-1.9,0-2.9,0c-0.2,0-0.5,0-0.7-0.1
					c0-0.1-0.1-0.1-0.1-0.2c0-1.7,0-3.4,0-5.1c0,0,0-0.1,0.1-0.2c0.1,0,0.1,0,0.2,0c1,0,2,0,3,0c0.1,0,0.3,0,0.4,0.1
					c0.3,0.1,0.5,0.3,0.6,0.6c0.1,0.3,0.1,0.5,0.1,0.8c0,0.1,0,0.3,0.1,0.4c0.2,0,0.4,0,0.6-0.1c0-0.1,0-0.2,0-0.3
					c0-1.3,0-2.6,0-3.9c0-0.1,0-0.2-0.1-0.3c-0.3,0-0.5-0.1-0.7,0c0,0.2,0,0.3-0.1,0.5c0,0.2-0.1,0.4-0.1,0.6
					c-0.1,0.3-0.3,0.5-0.6,0.6c-0.2,0-0.4,0.1-0.6,0.1c-0.9,0-1.8,0-2.8,0c-0.1,0-0.2,0-0.3,0c0-0.1-0.1-0.1-0.1-0.1
					c0-1.3,0-2.6,0-3.9c0-0.1,0-0.2,0-0.3c0,0,0,0,0,0c0,0,0,0,0.1-0.1c0.1,0,0.2,0,0.3,0c1.2,0,2.4,0,3.5,0c0.6,0,1.1,0.3,1.5,0.7
					c0.2,0.2,0.4,0.5,0.5,0.7c0.1,0.2,0.3,0.4,0.4,0.7c0.2-0.1,0.5-0.1,0.6-0.3c0-0.1-0.1-0.2-0.1-0.4c-0.2-0.5-0.3-1-0.5-1.6
					c-0.3-0.8-0.3-0.8-1.1-0.8c-2.4,0-4.7,0-7.1,0c-0.2,0-0.5,0-0.7,0c-0.1,0-0.2,0-0.3,0.1c0,0.3-0.1,0.5,0,0.8
					c0.3,0.2,0.6,0,0.9,0.2c0,3.5,0,7,0,10.6c0,0.1,0,0.2,0,0.3c-0.3,0.1-0.6,0.1-0.8,0.2c0,0.3-0.1,0.5,0,0.8c0.1,0,0.2,0,0.4,0
					C211.8,138.1,216.7,138.1,217.2,138z M134.1,143.2c0.1,0.4,0.1,0.8,0.1,1.2c0,2.6,0,5.3,0,7.9c0,0.5,0,1-0.1,1.5
					c0,0.1,0,0.2-0.1,0.3c-0.1,0-0.2,0-0.3,0.1c-0.6,0.1-0.6,0.2-0.5,0.8c0,0,0,0,0.1,0.1c0.2,0,0.5,0,0.7,0c2.4,0,4.8,0,7.1,0
					c0.3,0,0.6,0,0.9-0.1c0.1,0,0.2,0,0.4-0.1c0.3-1,0.5-2,0.8-3c-0.1-0.1-0.2-0.2-0.3-0.2c-0.2-0.1-0.4-0.1-0.5,0.1
					c-0.1,0.1-0.1,0.3-0.2,0.4c-0.1,0.2-0.3,0.5-0.4,0.7c-0.6,0.8-1.3,1.2-2.3,1.2c-1,0-2,0-3,0c-0.6,0-0.7-0.1-0.7-0.7
					c0-0.6,0-1.2,0-1.9c0-0.8,0-1.5,0-2.3c0-0.2,0-0.5,0.1-0.7c0.1,0,0.2,0,0.3,0c1,0,2,0,3,0c0.1,0,0.1,0,0.2,0
					c0.5,0,0.7,0.2,0.9,0.7c0,0.2,0.1,0.3,0.1,0.5c0.1,0.6,0.2,0.7,0.8,0.5c0.1-0.4,0.1-2.5,0-4.2c0-0.1,0-0.2,0-0.3
					c-0.2,0-0.5,0-0.7,0.1c0,0.2-0.1,0.5-0.1,0.7c0,0.1,0,0.3-0.1,0.4c-0.1,0.3-0.3,0.6-0.7,0.6c-0.2,0-0.3,0.1-0.5,0.1
					c-0.8,0-1.7,0-2.5,0c-0.2,0-0.4,0-0.6-0.1c-0.2-1-0.1-3.6,0.1-4.4c0.1,0,0.1,0,0.2,0c1.2,0,2.4,0,3.6,0c0.8,0,1.4,0.3,1.8,0.9
					c0.2,0.3,0.3,0.5,0.5,0.8c0.1,0.1,0.2,0.2,0.2,0.3c0.1,0,0.2,0,0.2-0.1c0.4-0.1,0.4-0.2,0.3-0.6c-0.2-0.7-0.4-1.3-0.6-2
					c-0.1-0.2-0.3-0.4-0.5-0.4c-0.2,0-0.4,0-0.5,0c-2.4,0-4.7,0-7.1,0c-0.1,0-0.2,0-0.4,0c-0.7,0-0.8,0.2-0.5,0.9
					C133.6,143.1,133.8,143.1,134.1,143.2z M212.7,148.6c0-1,0-1.6-0.2-2.3c-0.6-2.1-1.9-3.5-4.1-4.1c-1-0.3-2.1-0.3-3.1-0.1
					c-1.6,0.3-2.9,1.1-3.7,2.5c-0.3,0.5-0.5,1-0.7,1.5c-0.4,1.4-0.4,2.9-0.1,4.3c0.2,0.8,0.5,1.5,0.9,2.2c1.5,2.1,4.1,2.9,6.5,2.4
					c2.3-0.6,3.7-2,4.4-4.2C212.7,150.1,212.8,149.3,212.7,148.6z M180.7,131.5c0.1,0.5,0.1,1.1,0.2,1.6c0.2,1.2,0.7,2.4,1.6,3.2
					c1.2,1.2,2.8,1.8,4.5,1.8c2.6,0,4.8-1.7,5.6-4.2c0.3-0.9,0.3-1.8,0.4-2.7c0-0.1,0-0.2,0-0.3c-0.1-0.3-0.1-0.7-0.2-1
					c-0.2-0.8-0.4-1.6-0.8-2.3c-0.7-1.2-1.7-2-3.1-2.4c-1-0.3-2-0.4-3-0.2c-2.3,0.3-3.9,1.6-4.7,3.8
					C180.9,129.7,180.7,130.6,180.7,131.5z M216.9,144.5c0.3,0.3,0.4,0.5,0.6,0.7c2.1,3,4.2,6,6.2,8.9c0.1,0.2,0.2,0.3,0.4,0.5
					c0.2,0.2,0.4,0.3,0.7,0.3c0.1,0,0.2-0.1,0.3-0.2c0.1-0.2,0.1-0.4,0.1-0.6c0-3.2,0-6.5,0-9.7c0-0.3,0-0.6,0-0.9
					c0-0.1,0-0.2,0.1-0.4c0.3-0.1,0.6-0.1,0.8-0.2c0-0.3,0.1-0.6,0-0.8c-0.9-0.1-2.2-0.1-2.8,0c0,0.1,0,0.1,0,0.2
					c0,0.5,0,0.5,0.5,0.7c0.1,0,0.3,0.1,0.5,0.1c0,0.2,0,0.4,0,0.6c0,2.5,0,5,0,7.6c0,0.1,0,0.2,0,0.4c0,0.1,0,0.1-0.1,0.2
					c-0.2-0.1-0.3-0.3-0.4-0.4c-2-2.8-4-5.7-6-8.5c-0.1-0.2-0.2-0.3-0.4-0.5c-0.1-0.2-0.3-0.3-0.5-0.3c-0.5,0-0.9,0-1.4,0
					c-0.2,0-0.3,0-0.5,0c-0.1,0.4-0.1,0.5,0,0.9c0.3,0.1,0.6,0.1,0.9,0.2c0,0.2,0,0.3,0,0.5c0,3.2,0,6.4,0,9.6c0,0.1,0,0.2,0,0.4
					c0,0.3-0.1,0.4-0.4,0.5c-0.2,0-0.4,0.1-0.5,0.2c-0.1,0.3,0,0.5,0,0.7c0,0,0.1,0.1,0.1,0.1c0.8,0,1.6,0,2.4,0c0,0,0,0,0.1,0
					c0.2,0,0.3-0.2,0.3-0.4c0-0.2-0.1-0.3-0.1-0.4c-0.3-0.2-0.6-0.1-0.8-0.3C216.8,153.4,216.8,145,216.9,144.5z M108.2,155.1
					c0.9,0,1.6,0,2.4,0c0,0,0,0,0.1,0c0.3,0,0.4-0.2,0.3-0.4c0-0.1-0.1-0.3-0.1-0.4c-0.3-0.1-0.5-0.1-0.8-0.2
					c-0.1-0.2-0.1-0.4-0.1-0.6c0-2.8,0-5.5,0-8.3c0-0.1,0-0.2,0-0.4c0-0.1,0-0.2,0.1-0.2c0.1,0.2,0.3,0.4,0.5,0.6
					c2.1,3,4.2,6,6.2,8.9c0.1,0.2,0.3,0.4,0.4,0.6c0.2,0.2,0.4,0.3,0.6,0.3c0.2,0,0.3-0.1,0.3-0.2c0-0.2,0.1-0.4,0.1-0.6
					c0-3.2,0-6.5,0-9.7c0-0.3,0-0.6,0-1c0-0.1,0-0.2,0.1-0.3c0.3-0.1,0.6,0,0.8-0.2c0-0.1,0-0.2,0-0.4c0-0.1,0-0.3,0-0.4
					c-0.7-0.1-2-0.1-2.7,0c-0.1,0.2-0.1,0.4-0.1,0.5c0,0.1,0.1,0.2,0.2,0.3c0.1,0,0.3,0.1,0.4,0.1c0.1,0,0.2,0.1,0.3,0.1
					c0,0.1,0,0.3,0,0.4c0.1,2.6,0.1,5.1,0,7.7c0,0.2,0,0.4-0.1,0.5c-0.2-0.2-0.3-0.4-0.5-0.6c-2-2.8-3.9-5.6-5.9-8.5
					c-0.1-0.1-0.2-0.3-0.3-0.4c-0.1-0.1-0.3-0.2-0.4-0.2c-0.4,0-0.8-0.1-1.3-0.1c-0.3,0-0.5,0-0.8,0.2c0,0.3-0.1,0.5,0,0.7
					c0.3,0.2,0.7,0.1,1,0.3c0,0.2,0,0.4,0,0.6c0,3,0,6,0,9c0,0.3,0,0.5,0,0.8c0,0.3-0.1,0.4-0.4,0.5c-0.2,0-0.4,0.1-0.6,0.2
					C108.2,154.6,108.2,154.8,108.2,155.1z M167.5,143.1c0-0.1,0.1-0.1,0.1-0.2c0.1-0.6,0.1-0.7-0.6-0.8c-0.6,0-1.2,0-1.7,0
					c-0.1,0-0.1,0-0.2,0c-0.3,0.1-0.4,0.2-0.4,0.5c0,0.3,0.1,0.4,0.4,0.5c0.2,0,0.3,0,0.5,0.1c0,0.3,0.1,0.6,0.1,0.9
					c0,2.1,0,4.3,0,6.4c0,0.4,0,0.8-0.1,1.2c0,0.1,0,0.1-0.1,0.2c-0.2-0.1-0.3-0.4-0.4-0.6c-1.8-2.6-3.7-5.2-5.5-7.9
					c-0.2-0.2-0.4-0.5-0.5-0.7c-0.3-0.4-0.7-0.6-1.1-0.6c-0.4,0-0.7,0-1.1,0c-0.1,0-0.2,0-0.3,0.1c-0.2,0.1-0.3,0.2-0.2,0.4
					c0,0.2,0.1,0.3,0.2,0.5c0.3,0,0.5,0.1,0.8,0.1c0.1,0.2,0.1,0.5,0.1,0.7c0,3.1,0,6.2,0,9.4c0,0.1,0,0.3,0,0.4
					c0,0.2,0,0.3-0.2,0.4c-0.2,0.1-0.5,0-0.7,0.2c0,0.2-0.1,0.5,0,0.7c0.6,0.1,2.3,0.1,2.7,0c0.1-0.2,0-0.5,0-0.7
					c-0.1,0-0.3-0.1-0.4-0.1c-0.4-0.1-0.5-0.2-0.5-0.6c0-0.2,0-0.4,0-0.5c0-2.6,0-5.2,0-7.8c0-0.1,0-0.3,0-0.4c0-0.1,0-0.1,0.1-0.2
					c0.1,0.1,0.2,0.1,0.3,0.2c0.1,0.1,0.2,0.3,0.4,0.5c2.1,3,4.1,5.9,6.2,8.9c0.1,0.2,0.2,0.4,0.4,0.5c0.2,0.2,0.4,0.3,0.6,0.3
					c0.1,0,0.2-0.1,0.3-0.2c0.1-0.2,0.1-0.4,0.1-0.7c0-3.3,0-6.7,0-10c0-0.2,0-0.4,0-0.6c0-0.1,0-0.2,0.1-0.4
					C167,143.1,167.2,143.1,167.5,143.1z M204.2,134.9c-0.2-0.2-0.3-0.4-0.5-0.6c-2-2.8-3.9-5.6-5.9-8.4c-0.6-0.9-0.4-0.7-1.5-0.8
					c-0.5,0-0.9,0-1.4,0.1c-0.1,0.3,0,0.5,0.1,0.8c0.3,0.2,0.7,0,1,0.2c0,0.1,0,0.3,0,0.5c0,3.3,0,6.5,0,9.8c0,0.1,0,0.2,0,0.3
					c0,0.2-0.1,0.3-0.3,0.3c-0.2,0.1-0.4,0.1-0.6,0.2c-0.1,0.3-0.1,0.5,0,0.8c0.1,0,0.2,0,0.3,0c0.6,0,1.3,0,1.9,0
					c0.7,0,0.7-0.1,0.5-0.8c0,0,0-0.1-0.1-0.1c-0.2-0.1-0.5-0.1-0.8-0.2c0-0.2,0-0.4,0-0.5c0-2.8,0-5.6,0-8.5c0-0.1,0-0.2,0-0.3
					c0-0.1,0-0.1,0.1-0.2c0.2,0.3,0.4,0.5,0.5,0.7c1.9,2.7,3.8,5.4,5.7,8.2c0.3,0.4,0.6,0.8,0.9,1.3c0.1,0.2,0.3,0.3,0.6,0.4
					c0.3,0,0.4,0,0.5-0.3c0-0.2,0-0.4,0-0.6c0-3.5,0-7,0-10.5c0-0.1,0-0.3,0-0.4c0.3-0.1,0.6,0,0.9-0.2c0-0.3,0-0.5,0-0.8
					c-0.8-0.1-2.2-0.1-2.8,0c0,0.1,0,0.1,0,0.2c0,0.5,0,0.5,0.5,0.7c0.1,0,0.3,0,0.4,0.2C204.4,127.2,204.4,133.7,204.2,134.9z
					 M227.1,155.1c0.1,0,0.1,0,0.2,0c0.9,0,1.8,0,2.7,0c0.1,0,0.1,0,0.2-0.1c0-0.2,0-0.3,0-0.5c0-0.1,0-0.2,0-0.3
					c-0.1,0-0.3-0.1-0.4-0.1c-0.7-0.1-0.7-0.3-0.5-0.9c0.3-0.8,0.6-1.6,1-2.4c0-0.1,0.1-0.2,0.1-0.3c0.5-0.1,4.7-0.1,5.1,0
					c0,0,0,0.1,0.1,0.1c0.4,0.9,0.7,1.8,1.1,2.7c0,0.1,0.1,0.2,0.1,0.3c0,0.2,0,0.4-0.2,0.5c-0.2,0.1-0.3,0.1-0.5,0.2
					c0,0.1-0.1,0.2-0.1,0.4c0,0.3,0.1,0.4,0.3,0.4c0.1,0,0.2,0,0.3,0c0.9,0,1.8,0,2.7,0c0.1,0,0.2,0,0.3,0c0-0.3,0-0.5,0-0.8
					c-0.1,0-0.1,0-0.2-0.1c-0.4-0.1-0.6-0.3-0.8-0.7c-0.1-0.2-0.2-0.4-0.2-0.6c-0.6-1.7-1.3-3.4-1.9-5c-0.7-1.7-1.3-3.5-2-5.2
					c-0.1-0.2-0.1-0.4-0.2-0.5c-0.1-0.2-0.3-0.3-0.6-0.2c-0.6,0.2-1,0.4-1.2,1c-0.6,1.4-1.1,2.8-1.7,4.3c-0.8,2-1.6,4-2.4,5.9
					c-0.2,0.5-0.4,0.9-0.9,1.1c-0.3,0.1-0.3,0.2-0.3,0.5C227,154.9,227.1,155,227.1,155.1z M175.4,141.9c-0.1,0-0.2,0-0.4,0.1
					c-0.6,0.1-1,0.4-1.2,1c-0.1,0.1-0.1,0.3-0.2,0.4c-0.8,2-1.6,4.1-2.4,6.1c-0.5,1.2-1,2.5-1.5,3.7c-0.2,0.4-0.4,0.8-0.9,1
					c-0.1,0.1-0.2,0.1-0.4,0.2c0,0.2,0,0.3,0,0.4c0,0.1,0,0.1,0.1,0.2c0.6,0.1,2.6,0.1,3,0c0.1-0.4,0.1-0.4-0.1-0.8
					c-0.1,0-0.2,0-0.3-0.1c-0.1,0-0.3,0-0.4-0.1c-0.3-0.1-0.4-0.3-0.3-0.5c0-0.1,0.1-0.3,0.1-0.4c0.3-0.8,0.6-1.5,0.9-2.3
					c0-0.1,0.1-0.2,0.2-0.3c0.6,0,1.1,0,1.7,0c0.6,0,1.1,0,1.7,0c0.6,0,1.1,0,1.7,0c0,0.1,0.1,0.1,0.1,0.2c0.3,0.8,0.6,1.6,0.9,2.4
					c0.1,0.2,0.1,0.3,0.2,0.5c0.1,0.3,0,0.4-0.3,0.5c-0.1,0.1-0.3,0.1-0.4,0.1c-0.1,0.4-0.1,0.4,0,0.7c0.5,0.1,1.6,0.1,2.8,0.1
					c0.2,0,0.5,0,0.7-0.2c0-0.2,0.1-0.4,0-0.7c-0.1,0-0.1,0-0.2,0c-0.5-0.1-0.8-0.4-0.9-0.8c-1-2.7-2-5.3-3-8c-0.4-1-0.7-2-1.1-3
					C175.7,142.3,175.6,142.1,175.4,141.9z M138.6,124.9c-0.2,0-0.4,0.1-0.7,0.1c-0.5,0.1-0.8,0.4-0.9,0.9c-0.2,0.6-0.5,1.2-0.7,1.8
					c-1.1,2.8-2.2,5.5-3.3,8.3c-0.1,0.2-0.1,0.4-0.2,0.5c-0.1,0.3-0.4,0.6-0.7,0.7c-0.5,0.2-0.5,0.4-0.3,0.8c0,0,0,0,0,0.1
					c0.3,0.1,0.6,0,1,0c0.4,0,0.7,0,1.1,0c0.3,0,0.7,0.1,1-0.1c0-0.3,0-0.5-0.1-0.7c-0.2,0-0.4-0.1-0.6-0.1
					c-0.4-0.1-0.5-0.4-0.3-0.6c0-0.1,0-0.1,0.1-0.2c0.3-0.8,0.7-1.7,1-2.5c0-0.1,0.1-0.2,0.2-0.3c0.6,0,1.1,0,1.7,0
					c0.6,0,1.1,0,1.7,0c0.6,0,1.1,0,1.7,0c0.4,0.9,0.7,1.8,1.1,2.8c0.1,0.2,0.1,0.5,0,0.8c-0.2,0.1-0.4,0.1-0.6,0.2
					c-0.1,0.2-0.2,0.4-0.2,0.5c0,0.2,0.1,0.3,0.2,0.3c0.1,0,0.3,0,0.4,0c0.9,0,1.8,0,2.6,0c0.1,0,0.2,0,0.3-0.1c0-0.3,0-0.5,0-0.8
					c-0.1,0-0.2,0-0.2-0.1c-0.4-0.1-0.6-0.3-0.7-0.6c-0.1-0.2-0.1-0.3-0.2-0.5c-0.9-2.4-1.8-4.8-2.7-7.2c-0.4-1.1-0.8-2.2-1.3-3.4
					C138.9,125.3,138.8,125.1,138.6,124.9z M123.4,138.2c0.3-0.1,0.5-0.2,0.7-0.3c0.4-0.2,0.7-0.2,1.1-0.1c0.2,0.1,0.4,0.1,0.6,0.2
					c0.5,0.2,1,0.2,1.5,0.2c1.3-0.1,2.3-0.7,2.9-1.9c0.7-1.3,0.5-3.3-1-4.5c-0.3-0.2-0.7-0.5-1-0.6c-0.8-0.4-1.7-0.9-2.5-1.3
					c-0.2-0.1-0.5-0.2-0.7-0.4c-0.5-0.3-0.7-0.8-0.7-1.4c0-0.4,0.1-0.8,0.3-1.2c0.2-0.5,0.6-0.8,1.1-0.9c0.2-0.1,0.5-0.1,0.7-0.1
					c1-0.1,1.8,0.3,2.3,1.1c0.2,0.4,0.4,0.7,0.6,1.1c0.1,0.1,0.1,0.2,0.2,0.4c0.2,0,0.3,0,0.4-0.1c0.1,0,0.2-0.1,0.2-0.3
					c0-0.1,0-0.1,0-0.2c-0.1-0.8-0.1-1.7-0.2-2.5c0-0.1-0.1-0.2-0.2-0.3c-0.1,0.1-0.3,0.1-0.4,0.1c-0.3,0.1-0.6,0.2-1,0.1
					c-0.2-0.1-0.5-0.1-0.7-0.2c-1-0.3-2-0.2-3,0.3c-0.6,0.3-1,0.7-1.4,1.2c-0.5,0.9-0.6,1.8-0.3,2.8c0.2,0.7,0.6,1.2,1.2,1.5
					c0.4,0.2,0.8,0.4,1.2,0.6c0.7,0.4,1.4,0.8,2.1,1.2c0.3,0.2,0.6,0.4,0.9,0.6c0.6,0.5,0.8,1.2,0.6,1.9c-0.1,0.4-0.2,0.7-0.4,1.1
					c-0.2,0.4-0.6,0.7-1.1,0.8c-1.3,0.3-2.6-0.2-3.3-1.3c-0.2-0.4-0.4-0.8-0.6-1.2c-0.3-0.7-0.3-0.7-0.9-0.3c0,0,0,0.1-0.1,0.1
					C123,135.7,123.2,136.9,123.4,138.2z M185.4,155.1c0.1,0,0.1,0,0.1,0c1.2,0,2.5,0,3.7,0c0.1,0,0.2,0,0.2-0.1
					c0-0.3,0-0.5-0.1-0.8c-0.2,0-0.3,0-0.5-0.1c-0.1,0-0.2,0-0.4,0c-0.2,0-0.3-0.1-0.4-0.4c0-0.2,0-0.3,0-0.5c0-3.1,0-6.2,0-9.3
					c0-0.2,0-0.4,0-0.6c0-0.1,0-0.2,0.1-0.3c0.7,0,1.4,0,2.1,0c0.5,0,0.9,0.2,1.1,0.7c0.2,0.4,0.3,0.7,0.5,1.1
					c0.2,0.4,0.3,0.4,0.7,0.3c0.1,0,0.2-0.1,0.2-0.1c-0.2-0.9-0.3-1.7-0.5-2.6c-0.1-0.4-0.2-0.5-0.6-0.5c-0.2,0-0.3,0-0.5,0
					c-2.6,0-5.3,0-7.9,0c-0.1,0-0.2,0-0.4,0c-0.5,0-0.6,0.1-0.7,0.6c0,0,0,0,0,0.1c-0.1,0.6-0.3,1.2-0.4,1.9c0,0.2-0.1,0.4-0.1,0.6
					c0.6,0.3,0.7,0.3,0.9-0.3c0.1-0.3,0.3-0.7,0.4-1c0.1-0.3,0.3-0.5,0.7-0.6c0.5-0.2,1.9-0.2,2.5,0c0.1,0.2,0,0.4,0,0.6
					c0,3.2,0,6.4,0,9.6c0,0.1,0,0.2,0,0.4c0,0.1,0,0.2-0.1,0.3c-0.4,0.1-0.7,0-1,0.2C185.3,154.6,185.2,154.8,185.4,155.1z
					 M128.2,155.1c0.1-0.3,0.1-0.5,0-0.8c-0.3,0-0.5-0.1-0.8-0.1c-0.1,0-0.2-0.1-0.3-0.1c0-0.2,0-0.4,0-0.6c0-3.2,0-6.3,0-9.5
					c0-0.1,0-0.3,0-0.4c0-0.1,0-0.2,0.1-0.3c0.8,0,1.5,0,2.2,0c0.4,0,0.7,0.2,0.9,0.6c0.1,0.1,0.1,0.2,0.1,0.3
					c0.1,0.3,0.3,0.6,0.4,1c0.1,0.3,0.2,0.3,0.5,0.2c0.1,0,0.2-0.1,0.3-0.1c0-0.2,0-0.4-0.1-0.6c-0.1-0.6-0.3-1.2-0.4-1.9
					c0,0,0-0.1,0-0.1c-0.1-0.4-0.2-0.5-0.6-0.5c-0.2,0-0.4,0-0.6,0c-2.5,0-5,0-7.6,0c-0.2,0-0.4,0-0.6,0c-0.4,0-0.5,0.1-0.7,0.5
					c0,0,0,0.1,0,0.1c-0.1,0.6-0.3,1.2-0.4,1.8c0,0.1-0.1,0.3-0.1,0.4c0,0.2,0.1,0.3,0.2,0.4c0.3,0.1,0.5,0,0.7-0.2
					c0.1-0.1,0.1-0.2,0.1-0.3c0.1-0.3,0.2-0.6,0.3-0.8c0.2-0.4,0.5-0.7,0.9-0.8c0.1,0,0.3,0,0.4,0c0.5,0,1,0,1.5,0
					c0.1,0,0.2,0,0.3,0.1c0,0.5,0.1,1,0.1,1.4c0,2.2,0,4.4,0,6.6c0,0.8-0.1,1.5-0.1,2.3c0,0.2,0,0.5-0.1,0.7c-0.1,0-0.3,0-0.4,0
					c-0.5,0.1-0.7,0.1-0.5,0.8c0,0,0,0.1,0.1,0.1C124.6,155.1,127.5,155.1,128.2,155.1z M226.7,137.2c-0.2,0-0.4-0.1-0.6-0.1
					c-0.7,0-0.7-0.2-0.7-0.8c0-1,0-1.9,0-2.9c0-0.6,0.1-1.1,0.5-1.6c1.1-1.6,2.1-3.3,3.2-4.9c0.1-0.2,0.2-0.3,0.3-0.5
					c0.2-0.3,0.4-0.4,0.8-0.5c0.1,0,0.2,0,0.3-0.1c0-0.1,0.1-0.3,0.1-0.4c0-0.3-0.1-0.4-0.4-0.4c-0.8,0-1.6,0-2.4,0
					c-0.3,0-0.4,0.2-0.4,0.5c0,0.3,0.1,0.4,0.4,0.5c0.2,0,0.4,0,0.5,0.2c-0.3,0.8-2.8,4.8-3.5,5.4c-0.2-0.1-0.3-0.3-0.4-0.5
					c-0.9-1.4-1.7-2.8-2.5-4.2c-0.1-0.2-0.2-0.3-0.3-0.5c0-0.1,0-0.2-0.1-0.3c0.3-0.1,0.6-0.1,0.9-0.3c0-0.2,0-0.5-0.1-0.7
					c-0.1,0-0.1,0-0.1-0.1c-1-0.1-2-0.1-3,0c-0.1,0-0.3,0-0.4,0.2c0,0.2,0,0.4,0,0.6c0.1,0,0.1,0.1,0.1,0.1c0.5,0.1,0.8,0.4,1,0.8
					c0.1,0.1,0.1,0.2,0.2,0.3c0.9,1.5,1.8,3.1,2.8,4.6c0.6,0.8,0.8,1.7,0.8,2.7c0,0.8,0,1.6,0,2.4c0,0.1,0,0.2,0,0.3
					c-0.4,0.1-0.7,0.1-1.1,0.2c0,0.3-0.1,0.5,0,0.8c0.1,0,0.1,0,0.1,0c1.2,0,2.4,0,3.6,0c0.1,0,0.2,0,0.3-0.1
					C226.7,137.8,226.7,137.5,226.7,137.2z M240.8,154.3c-0.1,0.3-0.1,0.5,0,0.8c0.1,0,0.1,0,0.2,0c3,0,5.9,0,8.9,0c0,0,0,0,0.1,0
					c0,0,0,0,0.1-0.1c0,0,0-0.1,0.1-0.2c0.2-0.8,0.4-1.6,0.6-2.4c0-0.1,0-0.2,0.1-0.3c0-0.2-0.1-0.4-0.3-0.4c-0.2-0.1-0.4,0-0.5,0.2
					c-0.1,0.2-0.2,0.5-0.3,0.7c-0.5,1-1.3,1.5-2.4,1.5c-1,0-2,0-3,0c-0.1,0-0.2,0-0.4,0c-0.2,0-0.3-0.1-0.3-0.3c0-0.2,0-0.4,0-0.5
					c0-2.3,0-4.6,0-6.9c0-0.8,0-1.6,0-2.4c0-0.2,0-0.5,0.1-0.7c0.3-0.1,0.6,0,0.9-0.2c0-0.1,0.1-0.3,0.1-0.5c0-0.2-0.1-0.3-0.3-0.4
					c-0.1,0-0.2,0-0.4,0c-0.8,0-1.7,0-2.5,0c-0.7,0-0.8,0.2-0.5,0.9c0.2,0,0.5,0.1,0.7,0.1c0.1,0.5,0.1,8.4,0.1,10.6
					c0,0.1,0,0.2,0,0.3C241.3,154.2,241,154.2,240.8,154.3z M103.2,143.2c0.1,0.4,0.1,0.7,0.1,1c0,2.8,0,5.7,0,8.5
					c0,0.4,0,0.7-0.1,1.1c0,0.1,0,0.2-0.1,0.3c-0.3,0.1-0.6,0.1-0.9,0.2c0,0.3,0,0.5,0,0.8c0.3,0.1,0.7,0,1,0c0.3,0,0.6,0,1,0
					c0.3,0,0.7,0,1,0c0.3,0,0.7,0,1-0.1c0-0.3,0-0.5-0.1-0.8c-0.3-0.1-0.7-0.1-1-0.2c0-0.2,0-0.3,0-0.5c-0.1-3.3-0.1-6.6,0-9.9
					c0-0.2,0-0.4,0.1-0.5c0.3,0,0.6-0.1,0.9-0.1c0-0.1,0.1-0.3,0.1-0.4c0-0.3,0-0.5-0.4-0.5c-0.1,0-0.2,0-0.3,0c-0.9,0-1.7,0-2.6,0
					c-0.2,0-0.4,0-0.7,0.1c0,0.3-0.1,0.5,0,0.8C102.6,143.1,102.9,143.1,103.2,143.2z M198.3,154.3c-0.3,0-0.5-0.1-0.8-0.1
					c-0.2,0-0.3-0.1-0.3-0.3c0-0.2,0-0.5,0-0.7c0-2.1,0-4.2,0-6.3c0-0.9,0-1.8,0-2.7c0-0.3,0-0.6,0.1-0.9c0.3,0,0.7-0.1,1-0.1
					c0.1-0.2,0.2-0.4,0.2-0.6c0-0.2-0.1-0.3-0.2-0.3c-0.2,0-0.3,0-0.5-0.1c-0.9,0-1.8,0-2.7,0c-0.1,0-0.3,0-0.4,0.1
					c-0.1,0-0.2,0.1-0.2,0.2c-0.2,0.4,0,0.7,0.4,0.7c0.2,0,0.4,0,0.6,0.1c0.1,0.5,0.1,8.1,0,10.6c0,0.1,0,0.2,0,0.3
					c-0.3,0.1-0.7,0-1,0.2c0,0.1-0.1,0.3-0.1,0.5c0,0.2,0.1,0.3,0.3,0.3c0.1,0,0.2,0,0.3,0c1.1,0,2.1,0,3.2,0c0.1,0,0.2,0,0.3,0
					c0-0.2,0-0.3,0-0.4C198.3,154.6,198.3,154.4,198.3,154.3z M132.5,74.3c-0.1,0.7-0.1,2.5,0.1,4.8c0,0.5,0,0.9,0.2,1.4
					c0.2-0.1,0.4-0.3,0.6-0.4c0.6-0.5,1.2-1,1.8-1.4c0.3-0.3,0.7-0.5,1-0.8c0.5-0.4,0.7-0.9,0.7-1.5c-0.1-0.6-0.1-1.2,0-1.7
					c0-0.1,0-0.2,0-0.3C136.3,74.3,133.1,74.3,132.5,74.3z"/>
				<path d="M164.7,62.1c-0.1,0.2-0.3,0.2-0.4,0.3c-2.4,1.6-4.8,3.2-7.2,4.9c-7.3,5.3-14.1,11.2-20.2,17.8c-3,3.3-5.8,6.8-8.2,10.5
					c-1.6,2.4-3,5-4.1,7.7c-0.5,1.3-1,2.6-1.3,4c-0.2,1.2-0.3,2.5-0.2,3.7c0.1,1.8,0.8,3.4,2.2,4.7c0.9,0.8,2.1,1.4,3.3,1.7
					c1.4,0.4,2.9,0.4,4.4,0.4c2.8-0.1,5.4-0.7,8.1-1.5c2.7-0.8,5.4-1.8,7.9-3.1c1.5-0.7,3-1.4,4.4-2.1c0.2-0.1,0.4-0.2,0.6-0.3
					c-0.1-0.1-0.2-0.2-0.3-0.2c-0.2-0.1-0.5-0.3-0.7-0.4c-3.8-2.1-7.2-4.8-10.1-8c-0.2-0.2-0.3-0.4-0.5-0.5
					c-0.4-0.3-0.9-0.5-1.4-0.5c-0.2,0-0.4,0-0.6,0c-3.9,0-7.8,0-11.7,0c-0.4,0-0.7,0-1.1-0.1c0-0.1,0-0.2,0.1-0.3
					c0.1-0.3,0.3-0.6,0.4-0.9c0.3-0.6,0.6-1.1,0.9-1.7c2.3-3.6,4.8-7,7.5-10.3c0.5-0.5,1-1,1.5-1.6c0.1-0.1,0.2-0.2,0.4-0.3
					c0.1,0.2,0.1,0.4,0.2,0.5c0.6,1.8,1.4,3.6,2.3,5.3c3.2,6.2,7.9,11,13.9,14.5c3.2,1.9,6.7,3.2,10.4,4c1.4,0.3,2.7,0.5,4.1,0.6
					c1.7,0.1,3.5,0.2,5.2,0.1c5.8-0.3,11.3-2,16.3-5c7.9-4.8,13.6-12.3,16-21.2c0.5-1.8,0.8-3.6,1-5.5c0.1-1.2,0.2-2.4,0.2-3.6
					c0-0.1,0-0.3,0-0.4c0.3-0.1,0.5-0.1,0.8,0c1,0.2,1.9,0.4,2.8,0.6c0.7,0.2,0.7,0.2,0.7,0.9c-0.1,2.9-0.5,5.8-1.2,8.6
					c-0.1,0.3-0.2,0.6-0.2,0.9c0,0.1,0,0.2-0.1,0.4c0.2,0.1,0.4,0.1,0.5,0c1.5-0.3,3-0.6,4.5-1.1c1-0.3,1.8-0.8,2.6-1.5
					c1.1-1.1,1.5-2.4,1.2-3.9c-0.1-0.5-0.2-1-0.4-1.5c-0.5-1.4-1.5-2.4-2.8-3.1c-0.9-0.5-1.8-0.8-2.8-1c-1.5-0.4-3-0.6-4.5-0.8
					c-0.5-0.1-0.9-0.1-1.4-0.1c-2-0.1-3.9-0.2-5.9-0.4c-0.5,0-1-0.1-1.5-0.1c-0.1,0-0.3,0-0.4-0.1c0-0.2,0.2-0.2,0.3-0.3
					c1.2-1,2.5-1.9,3.7-2.9c2.2-1.8,4.4-3.7,6.6-5.6c0.1-0.1,0.2-0.2,0.3-0.2c0.3-0.2,0.6-0.4,1-0.3c0.1,0,0.2,0,0.3,0
					c2,0.1,4,0.2,6,0.3c1.7,0.1,3.5,0.2,5.2,0.3c1.3,0.1,2.6,0.1,3.9,0.3c1.3,0.1,2.6,0.2,3.9,0.4c1.1,0.1,2.1,0.2,3.2,0.4
					c4.1,0.5,8.1,1.3,12,2.7c2,0.7,3.8,1.6,5.6,2.7c2.2,1.4,4.1,3.2,5.8,5.2c1.5,1.9,2.8,4,4,6.1c0.5,1,1.1,2,1.5,3.1
					c0.5,1.3,0.9,2.7,1,4.1c0.1,1.8-0.4,3.4-1.8,4.7c-0.5,0.5-1.1,1-1.8,1.3c-1.5,0.9-3.1,1.5-4.7,2c-1.9,0.6-3.8,1-5.8,1.4
					c-1.8,0.3-3.7,0.6-5.5,0.8c-1.2,0.1-2.5,0.2-3.7,0.4c-1,0.1-2,0.2-3.1,0.3c-1.1,0.1-2.1,0.2-3.2,0.2c-1.5,0.1-2.9,0.2-4.4,0.3
					c-0.8,0-1.6,0.1-2.4,0.1c-1.4,0-2.7,0.1-4.1,0.1c-4.4,0.1-8.7,0.2-13.1,0.2c-1.7,0-3.4,0.1-5.1,0.1c-0.7,0-1.5,0.1-2.2,0.1
					c-0.4,0-0.7,0.2-1,0.4c-0.1,0.1-0.2,0.3-0.4,0.4c-5.6,6.2-12.5,10.3-20.6,12.3c-1.9,0.5-3.8,0.7-5.7,0.9
					c-2.1,0.2-4.2,0.2-6.2,0.1c-4.4-0.3-8.6-1.3-12.6-3c-0.3-0.1-0.6-0.2-0.8-0.4c0,0,0,0-0.1,0c-0.2,0-0.3,0.2-0.5,0.3
					c-2.9,2-5.8,3.9-8.9,5.7c-4.3,2.5-8.8,4.8-13.4,6.8c-0.5,0.2-1,0.4-1.5,0.6c-0.1-0.1-0.1-0.2-0.1-0.3c-0.1-0.2-0.1-0.4-0.2-0.5
					c-0.4-0.8-1.2-1.3-2.1-1c-0.6,0.1-1.1,0.1-1.7,0c-1.3-0.3-2.5-0.1-3.7,0.5c-1.3,0.6-2.2,1.6-2.6,3c-0.1,0.3-0.2,0.7-0.2,1
					c0,0.2-0.1,0.3-0.1,0.5c-0.3,0.1-0.5,0.1-0.8,0.1c-1.8,0.2-3.6,0.4-5.4,0.2c-1.5-0.1-3-0.5-4.4-1.1c-2.3-1.1-3.6-3-3.9-5.5
					c-0.3-1.7-0.1-3.3,0.3-4.9c0.6-2.5,1.6-4.9,2.8-7.2c1.5-2.8,3.2-5.4,5-8c2.5-3.4,5.2-6.6,8.1-9.6c4.4-4.6,9.1-8.9,14.1-12.9
					c6.3-5.1,13-9.6,20.1-13.5c1.9-1,3.8-2,5.7-2.9c0.5-0.2,0.9-0.5,1.4-0.7C164.2,62.2,164.4,62,164.7,62.1z"/>
				<path d="M158.1,63.4c-0.3,0.2-0.5,0.3-0.8,0.4c-3.1,1.7-6.1,3.5-9,5.4c-1.3,0.9-2.7,1.8-4,2.7c-0.1,0.1-0.3,0.2-0.4,0.3
					c-0.4,0.3-0.9,0.4-1.4,0.4c-1,0-1.9,0-2.9-0.1c-2.8-0.1-5.6-0.1-8.4-0.2c-1.5,0-3-0.1-4.5-0.2c-0.8,0-1.6-0.1-2.4-0.1
					c-1.7-0.1-3.4-0.2-5.1-0.3c-2.1-0.1-4.2-0.3-6.3-0.4c-3.1-0.3-6.1-0.7-9.1-1.3c-1.3-0.3-2.6-0.6-3.9-1.2c-1-0.4-1.9-1-2.8-1.7
					c-0.6-0.5-0.9-1.1-0.9-1.9c0-0.8,0.1-1.6,0.4-2.4c1.1-2.6,2.5-5.1,4.3-7.3c1.2-1.5,2.7-2.8,4.4-3.7c1.4-0.8,2.9-1.4,4.4-1.9
					c2-0.7,4-1.1,6-1.5c1.8-0.3,3.6-0.6,5.4-0.8c1.6-0.2,3.2-0.3,4.7-0.5c2.1-0.2,4.1-0.3,6.2-0.3c3.1-0.1,6.1-0.2,9.2-0.3
					c0.7,0,1.4-0.1,2.1-0.1c0.9,0,1.7-0.3,2.4-0.9c1.2-1.1,2.5-2.1,3.9-3c4.4-3.1,9.3-5.1,14.5-6.2c2.8-0.6,5.7-0.9,8.6-0.8
					c3,0,5.9,0.4,8.8,1.1c0.1,0,0.2,0,0.3,0.1c0.6,0.2,1.1,0.1,1.6-0.3c3.8-2.7,7.7-5.1,11.7-7.4c4.2-2.3,8.5-4.4,13-6.1
					c2.8-1.1,5.7-1.9,8.6-2.5c1.8-0.4,3.6-0.6,5.4-0.7c1.6,0,3.1,0.1,4.7,0.5c0.8,0.2,1.6,0.5,2.3,1c1.8,1,2.9,2.6,3.3,4.6
					c0.3,1.3,0.3,2.5,0.2,3.8c-0.2,1.9-0.8,3.7-1.5,5.5c-0.8,2.1-1.8,4-3,6c-2.1,3.5-4.5,6.9-7.2,10c-3.2,3.8-6.7,7.4-10.3,10.8
					c-8.5,8-17.9,14.8-28.1,20.6c-1.9,1.1-3.9,2-5.9,3c-0.5,0.3-1,0.5-1.5,0.8c-0.2,0.1-0.4,0.2-0.6,0.2c0.1-0.2,0.3-0.2,0.4-0.3
					c1.6-1.1,3.3-2.2,4.9-3.2c2.3-1.6,4.5-3.3,6.7-5c5.5-4.2,10.6-8.9,15.3-14c3.3-3.5,6.3-7.3,8.9-11.3c1.7-2.6,3.1-5.3,4.2-8.2
					c0.4-1.1,0.8-2.1,1-3.2c0.2-1.2,0.3-2.4,0.3-3.6c0-0.7-0.2-1.5-0.4-2.2c-0.6-1.5-1.6-2.7-3-3.5c-0.9-0.5-1.8-0.8-2.8-1
					c-1.4-0.2-2.9-0.3-4.3-0.2c-2.8,0.2-5.5,0.9-8.2,1.7c-2.6,0.8-5.1,1.8-7.6,3c-1.3,0.6-2.7,1.3-4,1.9c-0.2,0.1-0.5,0.2-0.6,0.4
					c0.1,0.1,0.1,0.1,0.2,0.1c0.2,0.1,0.5,0.2,0.7,0.3c4.7,1.8,9,4.4,12.7,7.7c0.1,0.1,0.2,0.1,0.2,0.2c0.4,0.3,0.8,0.5,1.3,0.5
					c0.6,0,1.2,0,1.7,0.1c3.1,0.1,6.1,0.2,9.2,0.3c0.2,0,0.4,0,0.6,0.1c0.1,0.2,0,0.3-0.1,0.4c-0.6,1.1-1.2,2.2-1.8,3.3
					c-0.8,1.3-1.7,2.6-2.6,3.9c-0.1,0.1-0.2,0.2-0.3,0.4c-0.3-0.1-0.5-0.2-0.8-0.3c-0.1,0.1,0,0.2,0,0.3c0,0.1,0.1,0.2,0.2,0.3
					c0,0.1,0.1,0.2,0.1,0.3c-0.3,0.4-2.6,3.4-2.9,3.7c-0.1-0.2-0.2-0.3-0.3-0.5c-1.1-2-2.4-3.9-3.8-5.6c-4.2-5.1-9.4-8.7-15.5-10.9
					c-2.3-0.8-4.7-1.4-7.1-1.8c-2.4-0.3-4.8-0.5-7.2-0.3c-7.1,0.5-13.5,3-19.2,7.2c-3.7,2.8-6.7,6.3-9.1,10.3
					c-0.5,0.9-1,1.9-1.5,2.8c-0.1,0.2-0.2,0.3-0.3,0.5c-1,0.2-3.5-0.4-4.3-1.1c0-0.1,0.1-0.3,0.1-0.4c0.6-1.5,1.4-2.9,2.2-4.3
					c0.3-0.5,0.6-1,0.9-1.5c0.1-0.1,0.1-0.2,0.2-0.3c-0.1,0-0.1,0-0.2,0c-1.1,0.2-2.3,0.6-3.3,1.1c-0.4,0.2-0.7,0.4-1,0.6
					c-1.3,1-1.7,2.4-1.6,3.9c0.1,0.7,0.4,1.2,0.9,1.7c0.5,0.5,1.2,0.9,1.8,1.1c0.7,0.3,1.5,0.4,2.3,0.5c2.5,0.4,5,0.6,7.6,0.7
					c3.9,0.1,7.9,0.2,11.8,0.3c0.2,0,0.5,0,0.7,0C158.1,63.3,158.1,63.3,158.1,63.4z"/>
				<path d="M126.3,79.6c0,1,0.1,1.9,0.4,2.8c0.3,0.9,0.9,1.6,1.6,2.2c-0.2,0.2-0.3,0.3-0.4,0.4c-1.7,1.6-3.4,3.2-5,4.8
					c-3.1,3.2-6.1,6.6-8.8,10.2c0,0.1-0.1,0.1-0.1,0.2c-0.3,0.4-0.6,0.5-1.1,0.5c-1.4-0.1-2.7-0.2-4.1-0.3c-1.5-0.1-2.9-0.2-4.4-0.4
					c-1.1-0.1-2.2-0.2-3.3-0.4c-3.7-0.5-7.4-1.1-11-2.2c-1.4-0.4-2.8-1-4.1-1.7c-0.9-0.5-1.8-1.1-2.5-1.8c-0.8-0.8-1.3-1.7-1.5-2.8
					c-0.2-0.8-0.1-1.6,0-2.5c0.2-1.4,0.7-2.7,1.4-3.9c0.3-0.6,0.7-1.3,1.1-1.9c0.4-0.8,0.9-1.6,1.3-2.3c0.1-0.2,0.2-0.3,0.3-0.4
					c0.2-0.3,0.5-0.4,0.9-0.4c0.2,0,0.4,0,0.5,0c12.6,0,25.3,0,37.9,0C125.7,79.6,126,79.6,126.3,79.6z"/>
				<path d="M200.1,63.3c-0.1,0.2-0.2,0.3-0.3,0.4c-0.9,1-1.9,2-2.9,3c-1.9,1.9-3.9,3.7-6,5.5c-0.1,0.1-0.2,0.2-0.4,0.3
					c-0.2,0.2-0.5,0.3-0.8,0.3c-0.2,0-0.3,0-0.5,0c-12-0.1-24-0.1-36-0.1c-0.2,0-0.4,0-0.5,0c-0.1-0.1,0-0.2,0.1-0.2
					c0.1-0.1,0.3-0.3,0.4-0.4c3.6-2.8,7.2-5.5,11.1-7.8c0.3-0.2,0.7-0.4,1-0.7c0.3-0.2,0.6-0.3,1-0.3c0.1,0,0.2,0,0.4,0
					c10.7,0,21.4,0,32.1,0C199.3,63.3,199.6,63.3,200.1,63.3z"/>
				<path d="M217.9,57c0.1-0.1,0.1-0.2,0.2-0.3c2.4-2.5,4.5-5.3,6.7-7.9c0.1-0.1,0.1-0.2,0.2-0.2c0.3-0.3,0.6-0.5,1-0.4
					c1.1,0.2,2.3,0.4,3.4,0.7c1.9,0.4,3.7,1,5.5,1.8c1.4,0.6,2.7,1.4,3.9,2.4c1.2,1,2.2,2.2,3,3.5c0.1,0.1,0.1,0.2,0.1,0.3
					c0,0,0,0,0,0c0,0,0,0,0,0c0,0,0,0,0,0c-7.9,0-15.9,0-23.8,0C218.1,57,218.1,57,217.9,57z"/>
				<path d="M166.8,128.7c0,0.3,0,0.5,0,0.6c0,2.3,0,4.6,0,6.9c0,0.2,0,0.3,0,0.5c0,0.2,0.1,0.3,0.3,0.4c0.2,0.1,0.4,0.1,0.6,0.2
					c0.1,0.2,0.1,0.5,0.1,0.7c-0.3,0.1-0.6,0-0.9,0.1c-0.3,0-0.6,0-0.9,0c-0.3,0-0.6,0-0.9,0c-0.1-0.4-0.1-0.4,0-0.8
					c0.2,0,0.4-0.1,0.6-0.1c0.2,0,0.3-0.2,0.3-0.3c0-0.1,0-0.2,0-0.4c0-3.2,0-6.4,0-9.6c0-0.2,0-0.4,0-0.6c-0.3-0.1-0.6-0.1-0.9-0.2
					c-0.1-0.3-0.1-0.5,0-0.8c0.2-0.1,0.5-0.1,0.7-0.1c0.4,0,0.8,0,1.2,0c0.2,0,0.4,0.1,0.5,0.3c0.1,0.2,0.2,0.3,0.3,0.5
					c0.8,2,1.7,4,2.5,6c0.4,0.9,0.7,1.7,1.1,2.6c0.1,0.3,0.2,0.5,0.4,0.7c0.1,0,0.2-0.1,0.2-0.2c0.1-0.2,0.2-0.3,0.2-0.5
					c1.2-2.8,2.4-5.7,3.5-8.5c0.1-0.2,0.2-0.4,0.3-0.6c0.2-0.3,0.5-0.5,0.9-0.5c0.5,0,0.9,0,1.4,0c0,0,0,0,0.1,0
					c0.4,0,0.5,0.2,0.5,0.6c0,0.2-0.1,0.4-0.4,0.4c-0.2,0-0.3,0-0.5,0c0,0.1-0.1,0.2-0.1,0.3c0,0.1,0,0.2,0,0.4c0,3.2,0,6.4,0,9.6
					c0,0.2,0,0.4,0.1,0.7c0.3,0.1,0.6,0.1,0.8,0.2c0.1,0.3,0.1,0.5,0.1,0.8c-0.5,0.1-3,0.1-3.7,0c-0.1-0.3-0.1-0.3-0.1-0.8
					c0.3-0.1,0.6-0.1,0.9-0.2c0-0.1,0.1-0.2,0.1-0.3c0-2.7,0-5.4,0-8c0-0.1,0-0.1,0-0.2c-0.1,0-0.1,0-0.2,0.1
					c-0.1,0.2-0.2,0.4-0.3,0.7c-1.1,2.7-2.3,5.4-3.4,8.1c-0.1,0.1-0.1,0.3-0.2,0.4c-0.2,0.3-0.6,0.3-0.8,0c-0.1-0.1-0.2-0.3-0.2-0.5
					c-1.1-2.6-2.1-5.2-3.2-7.8c-0.1-0.2-0.2-0.4-0.3-0.7C167,128.9,166.9,128.9,166.8,128.7z"/>
				<path d="M151.4,148.8c0.1,0.2,0.2,0.3,0.2,0.5c0.7,1.3,1.4,2.7,2.2,4c0.1,0.1,0.1,0.2,0.2,0.3c0.2,0.3,0.4,0.5,0.7,0.5
					c0.2,0,0.3,0.1,0.5,0.1c0.1,0.2,0.1,0.5,0.1,0.7c-0.1,0-0.2,0.1-0.3,0.1c-0.6,0-1.2,0-1.8,0c-0.2,0-0.3-0.1-0.4-0.3
					c-0.1-0.1-0.2-0.3-0.3-0.5c-0.8-1.7-1.7-3.3-2.5-5c-0.1-0.2-0.2-0.3-0.3-0.5c-0.6-0.1-1.8-0.1-2.2,0c0,0.1,0,0.2,0,0.3
					c0,1.4,0,2.8,0,4.2c0,0,0,0.1,0,0.1c0,0.4,0.1,0.6,0.5,0.6c0.2,0,0.3,0.1,0.5,0.1c0.1,0.3,0.1,0.5,0,0.8c-0.4,0.1-0.8,0-1.2,0.1
					c-0.4,0-0.8,0-1.2,0c-0.4,0-0.8,0-1.2,0c-0.1-0.3-0.1-0.5,0-0.8c0.2-0.1,0.5-0.1,0.7-0.2c0-0.1,0.1-0.2,0.1-0.3
					c0-0.4,0.1-0.9,0.1-1.3c0-2.7,0-5.5,0-8.2c0-0.3,0-0.7-0.1-1.1c-0.2,0-0.5-0.1-0.7-0.1c0-0.1-0.1-0.1-0.1-0.1
					c-0.2-0.7,0.1-0.8,0.7-0.8c1.1,0,2.3,0,3.4,0c1,0,2,0.1,3,0.3c0.3,0.1,0.6,0.2,1,0.3c0.9,0.4,1.4,1,1.6,1.9
					c0.1,0.4,0.1,0.8,0,1.2c-0.1,0.9-0.5,1.6-1.3,2c-0.4,0.2-0.8,0.4-1.2,0.7C151.8,148.6,151.6,148.7,151.4,148.8z M147.5,143.2
					c0,0.1,0,0.2,0,0.3c0,1.4,0,2.8,0,4.2c0,0.1,0,0.2,0,0.2c0.1,0,0.1,0,0.2,0c0.8,0,1.6,0,2.3,0c0.4,0,0.8-0.1,1.2-0.2
					c1.2-0.4,1.6-1.3,1.6-2.3c0-1-0.5-1.7-1.5-2c-0.4-0.1-0.8-0.2-1.2-0.2c-0.7,0-1.4,0-2.1,0C147.9,143.1,147.7,143.2,147.5,143.2z
					"/>
				<path d="M146.3,126.2c-0.2,0-0.5-0.1-0.7-0.1c-0.3-0.7-0.2-0.9,0.5-0.9c1.3,0,2.5-0.1,3.8,0c0.9,0.1,1.8,0.2,2.6,0.5
					c0.3,0.1,0.7,0.3,1,0.4c1.8,1,2.9,2.5,3,4.5c0.1,1,0,2.1-0.3,3.1c-0.4,1.5-1.3,2.6-2.6,3.3c-1.1,0.6-2.3,1-3.6,1
					c-1.4,0-2.8,0-4.2,0c-0.1,0-0.2,0-0.3,0c0-0.1-0.1-0.2-0.1-0.3c0-0.4,0-0.5,0.4-0.6c0.1,0,0.2-0.1,0.4-0.1
					c0.1-0.2,0.1-0.4,0.1-0.6c0-1.1,0.1-2.1,0.1-3.2c0-2.2,0-4.3-0.1-6.5C146.4,126.6,146.4,126.4,146.3,126.2z M148.1,131.6
					C148.1,131.6,148.1,131.6,148.1,131.6c0,1.5,0,3,0,4.5c0,0.2,0,0.4,0,0.5c0,0.4,0.1,0.5,0.5,0.5c0,0,0.1,0,0.1,0
					c0.6,0,1.3,0,1.9-0.1c0.7-0.2,1.4-0.4,2.1-0.8c0.9-0.6,1.6-1.4,1.8-2.5c0.2-1,0.3-2.1,0.2-3.1c-0.2-1.9-1.2-3.3-3-4
					c-1-0.4-2-0.5-3.1-0.5c0,0-0.1,0-0.1,0c-0.3,0-0.4,0.1-0.4,0.4c0,0.2,0,0.5,0,0.7C148.1,128.6,148.1,130.1,148.1,131.6z"/>
				<path d="M217.2,138c-0.6,0.1-5.4,0.1-8.8,0.1c-0.1,0-0.2,0-0.4,0c-0.1-0.3-0.1-0.5,0-0.8c0.3-0.1,0.5-0.1,0.8-0.2
					c0-0.1,0-0.2,0-0.3c0-3.5,0-7.1,0-10.6c-0.3-0.2-0.6-0.1-0.9-0.2c-0.1-0.2-0.1-0.5,0-0.8c0.1,0,0.2-0.1,0.3-0.1
					c0.2,0,0.5,0,0.7,0c2.4,0,4.7,0,7.1,0c0.9,0,0.9,0,1.1,0.8c0.2,0.5,0.3,1,0.5,1.6c0,0.1,0.1,0.2,0.1,0.4
					c-0.2,0.2-0.4,0.2-0.6,0.3c-0.1-0.2-0.3-0.4-0.4-0.7c-0.2-0.2-0.3-0.5-0.5-0.7c-0.4-0.5-0.9-0.7-1.5-0.7c-1.2,0-2.4,0-3.5,0
					c-0.1,0-0.2,0-0.3,0c0,0-0.1,0.1-0.1,0.1c0,0,0,0,0,0c0,0.1,0,0.2,0,0.3c0,1.3,0,2.6,0,3.9c0,0,0,0.1,0.1,0.1c0.1,0,0.2,0,0.3,0
					c0.9,0,1.8,0,2.8,0c0.2,0,0.4,0,0.6-0.1c0.3-0.1,0.5-0.3,0.6-0.6c0.1-0.2,0.1-0.4,0.1-0.6c0-0.2,0-0.3,0.1-0.5
					c0.3-0.1,0.5-0.1,0.7,0c0,0.1,0.1,0.2,0.1,0.3c0,1.3,0,2.6,0,3.9c0,0.1,0,0.2,0,0.3c-0.2,0-0.5,0-0.6,0.1
					c-0.2-0.1-0.1-0.3-0.1-0.4c0-0.3-0.1-0.5-0.1-0.8c-0.1-0.3-0.3-0.5-0.6-0.6c-0.1,0-0.3-0.1-0.4-0.1c-1,0-2,0-3,0
					c-0.1,0-0.1,0-0.2,0c0,0.1-0.1,0.1-0.1,0.2c0,1.7,0,3.4,0,5.1c0,0,0,0.1,0.1,0.2c0.2,0.1,0.4,0.1,0.7,0.1c1,0,1.9,0,2.9,0
					c1.1,0,1.9-0.5,2.5-1.4c0.2-0.3,0.3-0.6,0.5-0.9c0.1-0.3,0.4-0.3,0.6-0.2c0.1,0.1,0.2,0.2,0.2,0.3c0,0.1,0,0.1,0,0.2
					C217.7,136.2,217.5,137.1,217.2,138z"/>
				<path d="M134.1,143.2c-0.3,0-0.5-0.1-0.7-0.1c-0.3-0.7-0.2-0.9,0.5-0.9c0.1,0,0.2,0,0.4,0c2.4,0,4.7,0,7.1,0c0.2,0,0.4,0,0.5,0
					c0.2,0,0.4,0.2,0.5,0.4c0.2,0.7,0.4,1.3,0.6,2c0.1,0.4,0,0.4-0.3,0.6c-0.1,0-0.1,0-0.2,0.1c-0.1-0.1-0.2-0.2-0.2-0.3
					c-0.2-0.3-0.3-0.5-0.5-0.8c-0.5-0.6-1.1-0.9-1.8-0.9c-1.2,0-2.4,0-3.6,0c-0.1,0-0.1,0-0.2,0c-0.2,0.8-0.3,3.4-0.1,4.4
					c0.2,0.1,0.4,0.1,0.6,0.1c0.8,0,1.7,0,2.5,0c0.2,0,0.4,0,0.5-0.1c0.4-0.1,0.6-0.3,0.7-0.6c0-0.1,0.1-0.3,0.1-0.4
					c0-0.2,0.1-0.5,0.1-0.7c0.2-0.1,0.5-0.1,0.7-0.1c0,0.1,0,0.2,0,0.3c0,1.7,0,3.8,0,4.2c-0.6,0.2-0.7,0.1-0.8-0.5
					c0-0.2,0-0.4-0.1-0.5c-0.1-0.5-0.4-0.7-0.9-0.7c-0.1,0-0.1,0-0.2,0c-1,0-2,0-3,0c-0.1,0-0.2,0-0.3,0c-0.1,0.2-0.1,0.4-0.1,0.7
					c0,0.8,0,1.5,0,2.3c0,0.6,0,1.2,0,1.9c0,0.6,0.1,0.7,0.7,0.7c1,0,2,0,3,0c1,0,1.7-0.4,2.3-1.2c0.2-0.2,0.3-0.4,0.4-0.7
					c0.1-0.1,0.1-0.3,0.2-0.4c0.1-0.2,0.3-0.3,0.5-0.1c0.1,0.1,0.2,0.1,0.3,0.2c-0.3,1-0.5,2-0.8,3c-0.1,0-0.3,0.1-0.4,0.1
					c-0.3,0-0.6,0.1-0.9,0.1c-2.4,0-4.8,0-7.1,0c-0.2,0-0.5,0-0.7,0c-0.1-0.1-0.1-0.1-0.1-0.1c-0.2-0.6-0.1-0.7,0.5-0.8
					c0.1,0,0.2,0,0.3-0.1c0-0.1,0.1-0.2,0.1-0.3c0-0.5,0.1-1,0.1-1.5c0-2.6,0-5.3,0-7.9C134.2,144,134.1,143.6,134.1,143.2z"/>
				<path d="M212.7,148.6c0,0.7,0,1.4-0.2,2.2c-0.7,2.2-2.1,3.7-4.4,4.2c-2.4,0.6-5-0.3-6.5-2.4c-0.5-0.7-0.8-1.4-0.9-2.2
					c-0.3-1.5-0.3-2.9,0.1-4.3c0.2-0.5,0.4-1.1,0.7-1.5c0.9-1.4,2.1-2.2,3.7-2.5c1.1-0.2,2.1-0.2,3.1,0.1c2.1,0.6,3.5,2,4.1,4.1
					C212.7,147.1,212.8,147.6,212.7,148.6z M202.3,148.5c0,0.8,0.1,1.5,0.2,2.3c0.4,1.6,1.3,2.7,2.8,3.3c0.5,0.2,1,0.3,1.5,0.3
					c2.2-0.2,3.4-1.6,3.7-3.1c0.1-0.6,0.2-1.2,0.3-1.8c0.1-0.4,0.1-0.9,0.1-1.3c-0.1-0.5-0.1-0.9-0.2-1.4c-0.2-0.8-0.4-1.5-0.9-2.1
					c-0.5-0.7-1.1-1.2-1.8-1.5c-1.1-0.4-2.1-0.3-3.1,0.2c-1.2,0.5-1.9,1.5-2.3,2.7C202.4,146.8,202.3,147.6,202.3,148.5z"/>
				<path d="M180.7,131.5c0-0.9,0.2-1.9,0.5-2.8c0.8-2.2,2.4-3.4,4.7-3.8c1-0.1,2,0,3,0.2c1.4,0.4,2.4,1.2,3.1,2.4
					c0.4,0.7,0.7,1.5,0.8,2.3c0.1,0.3,0.1,0.7,0.2,1c0,0.1,0,0.2,0,0.3c0,0.9-0.1,1.8-0.4,2.7c-0.8,2.5-3,4.2-5.6,4.2
					c-1.7,0-3.3-0.5-4.5-1.8c-0.9-0.9-1.4-2-1.6-3.2C180.8,132.6,180.8,132.1,180.7,131.5z M186.9,125.9c-0.4,0-0.9,0.1-1.4,0.3
					c-1.3,0.5-2.2,1.5-2.6,2.8c-0.4,1.1-0.4,2.3-0.3,3.5c0.1,0.8,0.2,1.5,0.5,2.2c0.4,1,1.1,1.7,2,2.2c0.7,0.3,1.4,0.5,2.1,0.5
					c1.8-0.2,3.2-1.3,3.6-3.1c0.2-0.6,0.2-1.2,0.3-1.9c0.1-0.4,0.1-0.8,0.1-1.3c0-0.2,0-0.4-0.1-0.6c-0.1-0.9-0.4-1.8-0.8-2.7
					C189.5,126.5,188.4,126,186.9,125.9z"/>
				<path d="M216.9,144.5c-0.1,0.5-0.1,8.9,0,9.5c0.2,0.2,0.5,0.1,0.8,0.3c0,0.1,0.1,0.2,0.1,0.4c0,0.2-0.1,0.3-0.3,0.4
					c0,0,0,0-0.1,0c-0.8,0-1.6,0-2.4,0c0,0,0,0-0.1-0.1c0-0.2-0.1-0.5,0-0.7c0.2-0.1,0.4-0.1,0.5-0.2c0.3-0.1,0.4-0.2,0.4-0.5
					c0-0.1,0-0.2,0-0.4c0-3.2,0-6.4,0-9.6c0-0.2,0-0.3,0-0.5c-0.3-0.1-0.6-0.1-0.9-0.2c-0.1-0.4-0.1-0.4,0-0.9c0.2,0,0.3,0,0.5,0
					c0.5,0,0.9,0,1.4,0c0.2,0,0.4,0.1,0.5,0.3c0.1,0.2,0.3,0.3,0.4,0.5c2,2.8,4,5.7,6,8.5c0.1,0.2,0.2,0.3,0.4,0.4
					c0-0.1,0.1-0.1,0.1-0.2c0-0.1,0-0.2,0-0.4c0-2.5,0-5,0-7.6c0-0.2,0-0.3,0-0.6c-0.2,0-0.3-0.1-0.5-0.1c-0.4-0.1-0.5-0.2-0.5-0.7
					c0-0.1,0-0.1,0-0.2c0.5-0.2,1.8-0.2,2.8,0c0.1,0.3,0.1,0.5,0,0.8c-0.3,0.1-0.6,0.1-0.8,0.2c0,0.1,0,0.3-0.1,0.4
					c0,0.3,0,0.6,0,0.9c0,3.2,0,6.5,0,9.7c0,0.2,0,0.4-0.1,0.6c-0.1,0.1-0.2,0.2-0.3,0.2c-0.3,0-0.5-0.1-0.7-0.3
					c-0.1-0.2-0.2-0.4-0.4-0.5c-2.1-3-4.2-6-6.2-8.9C217.3,145,217.1,144.8,216.9,144.5z"/>
				<path d="M108.2,155.1c0-0.3,0-0.5,0-0.8c0.2-0.1,0.4-0.1,0.6-0.2c0.3-0.1,0.4-0.2,0.4-0.5c0-0.3,0-0.5,0-0.8c0-3,0-6,0-9
					c0-0.2,0-0.4,0-0.6c-0.3-0.2-0.7-0.1-1-0.3c-0.1-0.2,0-0.5,0-0.7c0.2-0.1,0.5-0.2,0.8-0.2c0.4,0,0.8,0,1.3,0.1
					c0.2,0,0.3,0.1,0.4,0.2c0.1,0.1,0.2,0.3,0.3,0.4c2,2.8,3.9,5.6,5.9,8.5c0.1,0.2,0.3,0.4,0.5,0.6c0.1-0.2,0.1-0.4,0.1-0.5
					c0.1-2.6,0.1-5.1,0-7.7c0-0.1,0-0.2,0-0.4c-0.1,0-0.2-0.1-0.3-0.1c-0.1,0-0.3-0.1-0.4-0.1c-0.1,0-0.2-0.1-0.2-0.3
					c0-0.2,0-0.4,0.1-0.5c0.7-0.1,2-0.1,2.7,0c0,0.1,0,0.3,0,0.4c0,0.1,0,0.2,0,0.4c-0.3,0.2-0.6,0.1-0.8,0.2c0,0.1,0,0.2-0.1,0.3
					c0,0.3,0,0.6,0,1c0,3.2,0,6.5,0,9.7c0,0.2,0,0.4-0.1,0.6c0,0.2-0.2,0.2-0.3,0.2c-0.3,0-0.5-0.1-0.6-0.3
					c-0.1-0.2-0.3-0.4-0.4-0.6c-2.1-3-4.2-6-6.2-8.9c-0.2-0.2-0.3-0.4-0.5-0.6c-0.1,0-0.1,0.1-0.1,0.2c0,0.1,0,0.2,0,0.4
					c0,2.8,0,5.5,0,8.3c0,0.2,0,0.4,0.1,0.6c0.2,0.1,0.5,0.1,0.8,0.2c0,0.1,0.1,0.3,0.1,0.4c0,0.3-0.1,0.4-0.3,0.4c0,0,0,0-0.1,0
					C109.8,155.1,109,155.1,108.2,155.1z"/>
				<path d="M167.5,143.1c-0.3,0-0.5,0.1-0.8,0.1c0,0.1-0.1,0.2-0.1,0.4c0,0.2,0,0.4,0,0.6c0,3.3,0,6.7,0,10c0,0.2,0,0.5-0.1,0.7
					c-0.1,0.1-0.2,0.2-0.3,0.2c-0.3,0-0.5-0.1-0.6-0.3c-0.1-0.2-0.2-0.4-0.4-0.5c-2.1-3-4.1-5.9-6.2-8.9c-0.1-0.2-0.2-0.3-0.4-0.5
					c-0.1-0.1-0.2-0.1-0.3-0.2c0,0.1-0.1,0.1-0.1,0.2c0,0.1,0,0.3,0,0.4c0,2.6,0,5.2,0,7.8c0,0.2,0,0.4,0,0.5c0,0.4,0.1,0.5,0.5,0.6
					c0.1,0,0.3,0.1,0.4,0.1c0.1,0.2,0.1,0.5,0,0.7c-0.4,0.1-2.1,0.1-2.7,0c-0.1-0.2-0.1-0.5,0-0.7c0.2-0.1,0.5-0.1,0.7-0.2
					c0.1-0.1,0.2-0.3,0.2-0.4c0-0.1,0-0.3,0-0.4c0-3.1,0-6.2,0-9.4c0-0.2,0-0.5-0.1-0.7c-0.3,0-0.5-0.1-0.8-0.1
					c-0.1-0.2-0.2-0.3-0.2-0.5c0-0.2,0.1-0.3,0.2-0.4c0.1,0,0.2-0.1,0.3-0.1c0.4,0,0.7,0,1.1,0c0.5,0,0.9,0.2,1.1,0.6
					c0.2,0.2,0.4,0.5,0.5,0.7c1.8,2.6,3.7,5.2,5.5,7.9c0.1,0.2,0.3,0.4,0.4,0.6c0.1,0,0.1-0.1,0.1-0.2c0-0.4,0.1-0.8,0.1-1.2
					c0-2.1,0-4.3,0-6.4c0-0.3,0-0.6-0.1-0.9c-0.2,0-0.4,0-0.5-0.1c-0.3-0.1-0.4-0.2-0.4-0.5c0-0.3,0.1-0.4,0.4-0.5
					c0.1,0,0.1,0,0.2,0c0.6,0,1.2,0,1.7,0c0.6,0,0.7,0.2,0.6,0.8C167.5,142.9,167.5,143,167.5,143.1z"/>
				<path d="M204.2,134.9c0.2-1.2,0.2-7.7,0-8.6c-0.1-0.1-0.3-0.1-0.4-0.2c-0.4-0.1-0.5-0.2-0.5-0.7c0-0.1,0-0.1,0-0.2
					c0.6-0.2,2-0.2,2.8,0c0.1,0.2,0,0.5,0,0.8c-0.3,0.2-0.6,0.1-0.9,0.2c0,0.1,0,0.3,0,0.4c0,3.5,0,7,0,10.5c0,0.2,0,0.4,0,0.6
					c-0.1,0.3-0.2,0.4-0.5,0.3c-0.3,0-0.4-0.2-0.6-0.4c-0.3-0.4-0.6-0.8-0.9-1.3c-1.9-2.7-3.8-5.4-5.7-8.2c-0.2-0.2-0.3-0.4-0.5-0.7
					c0,0.1-0.1,0.2-0.1,0.2c0,0.1,0,0.2,0,0.3c0,2.8,0,5.6,0,8.5c0,0.2,0,0.3,0,0.5c0.3,0.1,0.5,0.1,0.8,0.2c0,0,0.1,0.1,0.1,0.1
					c0.2,0.6,0.1,0.8-0.5,0.8c-0.6,0-1.3,0-1.9,0c-0.1,0-0.2,0-0.3,0c-0.1-0.3-0.1-0.5,0-0.8c0.2-0.1,0.4-0.1,0.6-0.2
					c0.2-0.1,0.3-0.1,0.3-0.3c0-0.1,0-0.2,0-0.3c0-3.3,0-6.5,0-9.8c0-0.2,0-0.3,0-0.5c-0.3-0.2-0.7-0.1-1-0.2
					c-0.1-0.2-0.1-0.5-0.1-0.8c0.5-0.1,0.9-0.2,1.4-0.1c1.1,0.1,0.9,0,1.5,0.8c2,2.8,3.9,5.6,5.9,8.4
					C203.9,134.5,204,134.7,204.2,134.9z"/>
				<path d="M227.1,155.1c0-0.1-0.1-0.2-0.1-0.3c0-0.3,0-0.4,0.3-0.5c0.5-0.2,0.8-0.6,0.9-1.1c0.8-2,1.6-4,2.4-5.9
					c0.6-1.4,1.1-2.8,1.7-4.3c0.2-0.6,0.6-0.9,1.2-1c0.3-0.1,0.4,0,0.6,0.2c0.1,0.2,0.2,0.4,0.2,0.5c0.7,1.7,1.3,3.5,2,5.2
					c0.6,1.7,1.3,3.4,1.9,5c0.1,0.2,0.2,0.4,0.2,0.6c0.2,0.3,0.4,0.6,0.8,0.7c0.1,0,0.1,0,0.2,0.1c0.1,0.3,0,0.5,0,0.8
					c-0.1,0-0.2,0-0.3,0c-0.9,0-1.8,0-2.7,0c-0.1,0-0.2,0-0.3,0c-0.3,0-0.4-0.2-0.3-0.4c0-0.1,0.1-0.2,0.1-0.4
					c0.2-0.1,0.3-0.1,0.5-0.2c0.2-0.1,0.3-0.2,0.2-0.5c0-0.1,0-0.2-0.1-0.3c-0.4-0.9-0.7-1.8-1.1-2.7c0,0,0-0.1-0.1-0.1
					c-0.4-0.1-4.6-0.1-5.1,0c0,0.1-0.1,0.2-0.1,0.3c-0.3,0.8-0.6,1.6-1,2.4c-0.2,0.6-0.2,0.8,0.5,0.9c0.1,0,0.3,0.1,0.4,0.1
					c0,0.1,0,0.2,0,0.3c0,0.2,0,0.3,0,0.5c-0.1,0-0.1,0.1-0.2,0.1c-0.9,0-1.8,0-2.7,0C227.2,155.1,227.2,155.1,227.1,155.1z
					 M232.9,144c-0.1,0.1-0.1,0.2-0.2,0.3c-0.6,1.6-1.3,3.2-1.9,4.9c0,0.1,0,0.2-0.1,0.3c1.4,0,2.8,0,4.3,0c0-0.1,0-0.1,0-0.2
					c-0.7-1.7-1.3-3.4-2-5.1C233,144.1,233,144.1,232.9,144z"/>
				<path d="M175.4,141.9c0.2,0.2,0.2,0.4,0.3,0.6c0.4,1,0.8,2,1.1,3c1,2.7,2,5.3,3,8c0.2,0.5,0.4,0.8,0.9,0.8c0.1,0,0.1,0,0.2,0
					c0.1,0.2,0,0.4,0,0.7c-0.3,0.1-0.5,0.1-0.7,0.2c-1.2,0.1-2.3,0-2.8-0.1c-0.1-0.3-0.1-0.3,0-0.7c0.1,0,0.3-0.1,0.4-0.1
					c0.3-0.1,0.4-0.2,0.3-0.5c0-0.2-0.1-0.3-0.2-0.5c-0.3-0.8-0.6-1.6-0.9-2.4c0-0.1-0.1-0.1-0.1-0.2c-0.6-0.1-1.1,0-1.7,0
					c-0.6,0-1.1,0-1.7,0c-0.6,0-1.1,0-1.7,0c-0.1,0.1-0.1,0.2-0.2,0.3c-0.3,0.8-0.6,1.5-0.9,2.3c-0.1,0.1-0.1,0.3-0.1,0.4
					c-0.1,0.3,0,0.4,0.3,0.5c0.1,0,0.3,0.1,0.4,0.1c0.1,0,0.2,0,0.3,0.1c0.1,0.4,0.1,0.4,0.1,0.8c-0.4,0.1-2.4,0.1-3,0
					c0-0.1,0-0.1-0.1-0.2c0-0.1,0-0.3,0-0.4c0.1-0.1,0.2-0.2,0.4-0.2c0.4-0.2,0.7-0.5,0.9-1c0.5-1.2,1-2.5,1.5-3.7
					c0.8-2,1.6-4.1,2.4-6.1c0.1-0.1,0.1-0.3,0.2-0.4c0.3-0.5,0.7-0.9,1.2-1C175.2,141.9,175.3,141.9,175.4,141.9z M176.6,149.5
					c-0.1-0.5-1.3-3.6-1.9-5.2c0,0-0.1-0.1-0.1-0.1c0,0.1-0.1,0.1-0.1,0.1c-0.8,1.6-1.5,3.2-2.1,4.9c0,0.1,0,0.2,0,0.3
					C173.7,149.5,175.1,149.5,176.6,149.5z"/>
				<path d="M138.6,124.9c0.2,0.2,0.2,0.4,0.3,0.6c0.4,1.1,0.9,2.2,1.3,3.4c0.9,2.4,1.8,4.8,2.7,7.2c0.1,0.2,0.1,0.3,0.2,0.5
					c0.1,0.3,0.4,0.6,0.7,0.6c0.1,0,0.1,0,0.2,0.1c0.1,0.3,0,0.5,0,0.8c-0.1,0-0.2,0.1-0.3,0.1c-0.9,0-1.8,0-2.6,0
					c-0.1,0-0.3,0-0.4,0c-0.2,0-0.2-0.1-0.2-0.3c0-0.2,0-0.4,0.2-0.5c0.2,0,0.4-0.1,0.6-0.2c0.1-0.3,0.1-0.5,0-0.8
					c-0.3-0.9-0.7-1.8-1.1-2.8c-0.6-0.1-1.1,0-1.7,0c-0.6,0-1.1,0-1.7,0c-0.6,0-1.1,0-1.7,0c-0.1,0.1-0.1,0.2-0.2,0.3
					c-0.3,0.8-0.7,1.7-1,2.5c0,0.1,0,0.1-0.1,0.2c-0.1,0.3,0,0.5,0.3,0.6c0.2,0.1,0.4,0.1,0.6,0.1c0.1,0.2,0.1,0.5,0.1,0.7
					c-0.3,0.1-0.7,0.1-1,0.1c-0.4,0-0.7,0-1.1,0c-0.3,0-0.7,0-1,0c0,0,0,0,0-0.1c-0.2-0.4-0.2-0.6,0.3-0.8c0.3-0.1,0.5-0.4,0.7-0.7
					c0.1-0.2,0.2-0.4,0.2-0.5c1.1-2.8,2.2-5.5,3.3-8.3c0.2-0.6,0.5-1.2,0.7-1.8c0.2-0.4,0.5-0.7,0.9-0.9
					C138.2,124.9,138.4,124.9,138.6,124.9z M135.5,132.4C135.5,132.4,135.5,132.4,135.5,132.4c0.1,0.1,0.2,0.1,0.3,0.1
					c1.3,0,2.6,0,3.9,0c0,0,0,0,0,0c0,0,0,0,0,0c-0.1-0.4-1.5-4.3-1.9-5.2c0-0.1-0.1-0.1-0.1-0.2c-0.1,0-0.1,0-0.1,0
					c-0.7,1.7-1.3,3.3-2,5C135.5,132.2,135.5,132.3,135.5,132.4z"/>
				<path d="M123.4,138.2c-0.2-1.3-0.4-2.5-0.6-3.7c0-0.1,0-0.1,0.1-0.1c0.6-0.4,0.7-0.4,0.9,0.3c0.2,0.4,0.3,0.8,0.6,1.2
					c0.7,1.1,2,1.6,3.3,1.3c0.5-0.1,0.9-0.4,1.1-0.8c0.2-0.3,0.3-0.7,0.4-1.1c0.1-0.8-0.1-1.4-0.6-1.9c-0.3-0.2-0.6-0.5-0.9-0.6
					c-0.7-0.4-1.4-0.8-2.1-1.2c-0.4-0.2-0.8-0.4-1.2-0.6c-0.6-0.3-1-0.8-1.2-1.5c-0.2-1-0.2-1.9,0.3-2.8c0.3-0.6,0.8-1,1.4-1.2
					c1-0.4,2-0.5,3-0.3c0.2,0.1,0.5,0.1,0.7,0.2c0.3,0.1,0.7,0.1,1-0.1c0.1-0.1,0.2-0.1,0.4-0.1c0.1,0.1,0.1,0.2,0.2,0.3
					c0.1,0.8,0.2,1.6,0.2,2.5c0,0.1,0,0.1,0,0.2c0,0.1-0.1,0.2-0.2,0.3c-0.1,0-0.3,0.1-0.4,0.1c-0.1-0.1-0.2-0.2-0.2-0.4
					c-0.2-0.4-0.4-0.7-0.6-1.1c-0.6-0.8-1.3-1.2-2.3-1.1c-0.2,0-0.5,0-0.7,0.1c-0.5,0.1-0.9,0.4-1.1,0.9c-0.2,0.4-0.3,0.8-0.3,1.2
					c0,0.6,0.2,1,0.7,1.4c0.2,0.2,0.5,0.3,0.7,0.4c0.8,0.4,1.7,0.9,2.5,1.3c0.4,0.2,0.7,0.4,1,0.6c1.6,1.2,1.7,3.1,1,4.5
					c-0.6,1.2-1.6,1.8-2.9,1.9c-0.5,0.1-1,0-1.5-0.2c-0.2-0.1-0.4-0.1-0.6-0.2c-0.4-0.1-0.8-0.1-1.1,0.1
					C123.9,138,123.7,138.1,123.4,138.2z"/>
				<path d="M185.4,155.1c-0.1-0.3-0.1-0.5,0-0.7c0.3-0.1,0.7-0.1,1-0.2c0-0.1,0.1-0.2,0.1-0.3c0-0.1,0-0.2,0-0.4c0-3.2,0-6.4,0-9.6
					c0-0.2,0-0.4,0-0.6c-0.6-0.2-2-0.1-2.5,0c-0.3,0.1-0.5,0.3-0.7,0.6c-0.1,0.3-0.3,0.7-0.4,1c-0.2,0.6-0.3,0.6-0.9,0.3
					c-0.1-0.2,0-0.4,0.1-0.6c0.1-0.6,0.3-1.2,0.4-1.9c0,0,0,0,0-0.1c0.1-0.5,0.2-0.5,0.7-0.6c0.1,0,0.2,0,0.4,0c2.6,0,5.3,0,7.9,0
					c0.2,0,0.3,0,0.5,0c0.4,0,0.5,0.1,0.6,0.5c0.2,0.8,0.3,1.7,0.5,2.6c-0.1,0-0.2,0.1-0.2,0.1c-0.4,0.1-0.5,0.1-0.7-0.3
					c-0.2-0.4-0.3-0.7-0.5-1.1c-0.2-0.5-0.6-0.7-1.1-0.7c-0.7,0-1.4,0-2.1,0c0,0.1-0.1,0.2-0.1,0.3c0,0.2,0,0.4,0,0.6
					c0,3.1,0,6.2,0,9.3c0,0.2,0,0.3,0,0.5c0,0.2,0.1,0.3,0.4,0.4c0.1,0,0.2,0,0.4,0c0.2,0,0.3,0,0.5,0.1c0.1,0.3,0.1,0.5,0.1,0.8
					c-0.1,0-0.2,0.1-0.2,0.1c-1.2,0-2.5,0-3.7,0C185.5,155.1,185.4,155.1,185.4,155.1z"/>
				<path d="M128.2,155.1c-0.7,0.1-3.6,0-4,0c0,0-0.1-0.1-0.1-0.1c-0.2-0.7,0-0.7,0.5-0.8c0.1,0,0.2,0,0.4,0
					c0.1-0.2,0.1-0.4,0.1-0.7c0-0.8,0.1-1.5,0.1-2.3c0-2.2,0-4.4,0-6.6c0-0.5,0-0.9-0.1-1.4c-0.1,0-0.2-0.1-0.3-0.1
					c-0.5,0-1,0-1.5,0c-0.1,0-0.3,0-0.4,0c-0.4,0.1-0.8,0.3-0.9,0.8c-0.1,0.3-0.2,0.6-0.3,0.8c0,0.1-0.1,0.2-0.1,0.3
					c-0.1,0.3-0.4,0.3-0.7,0.2c-0.1-0.1-0.2-0.2-0.2-0.4c0-0.1,0.1-0.3,0.1-0.4c0.1-0.6,0.3-1.2,0.4-1.8c0,0,0-0.1,0-0.1
					c0.1-0.4,0.2-0.5,0.7-0.5c0.2,0,0.4,0,0.6,0c2.5,0,5,0,7.6,0c0.2,0,0.4,0,0.6,0c0.4,0,0.5,0.1,0.6,0.5c0,0,0,0.1,0,0.1
					c0.1,0.6,0.3,1.2,0.4,1.9c0,0.2,0,0.4,0.1,0.6c-0.1,0-0.2,0.1-0.3,0.1c-0.3,0.1-0.4,0.1-0.5-0.2c-0.2-0.3-0.3-0.6-0.4-1
					c-0.1-0.1-0.1-0.2-0.1-0.3c-0.2-0.4-0.5-0.6-0.9-0.6c-0.7,0-1.5,0-2.2,0c0,0.1-0.1,0.2-0.1,0.3c0,0.1,0,0.3,0,0.4
					c0,3.2,0,6.3,0,9.5c0,0.2,0,0.4,0,0.6c0.1,0,0.2,0.1,0.3,0.1c0.3,0,0.5,0.1,0.8,0.1C128.3,154.5,128.2,154.8,128.2,155.1z"/>
				<path d="M226.7,137.2c0,0.3,0,0.5,0,0.8c-0.1,0-0.2,0.1-0.3,0.1c-1.2,0-2.4,0-3.6,0c0,0-0.1,0-0.1,0c-0.1-0.2-0.1-0.5,0-0.8
					c0.4-0.1,0.7-0.1,1.1-0.2c0-0.1,0-0.2,0-0.3c0-0.8,0-1.6,0-2.4c0-1-0.2-1.9-0.8-2.7c-1-1.5-1.9-3.1-2.8-4.6
					c-0.1-0.1-0.1-0.2-0.2-0.3c-0.2-0.4-0.5-0.7-1-0.8c0,0-0.1,0-0.1-0.1c0-0.2,0-0.4,0-0.6c0.1-0.1,0.2-0.2,0.4-0.2
					c1-0.1,2-0.1,3,0c0,0,0.1,0,0.1,0.1c0.1,0.2,0.1,0.5,0.1,0.7c-0.3,0.2-0.6,0.1-0.9,0.3c0,0.1,0,0.2,0.1,0.3
					c0.1,0.2,0.2,0.3,0.3,0.5c0.8,1.4,1.6,2.9,2.5,4.2c0.1,0.2,0.2,0.4,0.4,0.5c0.6-0.6,3.2-4.6,3.5-5.4c-0.1-0.2-0.4-0.1-0.5-0.2
					c-0.3-0.1-0.4-0.2-0.4-0.5c0-0.3,0.1-0.5,0.4-0.5c0.8,0,1.6,0,2.4,0c0.3,0,0.4,0.2,0.4,0.4c0,0.1-0.1,0.3-0.1,0.4
					c-0.1,0-0.2,0-0.3,0.1c-0.3,0.1-0.6,0.2-0.8,0.5c-0.1,0.2-0.2,0.3-0.3,0.5c-1.1,1.6-2.1,3.3-3.2,4.9c-0.3,0.5-0.5,1-0.5,1.6
					c0,1,0,1.9,0,2.9c0,0.6,0,0.8,0.7,0.8C226.4,137.2,226.5,137.2,226.7,137.2z"/>
				<path d="M240.8,154.3c0.3-0.1,0.6-0.1,0.9-0.2c0-0.1,0-0.2,0-0.3c0.1-2.2,0-10.1-0.1-10.6c-0.2,0-0.5-0.1-0.7-0.1
					c-0.3-0.7-0.2-0.9,0.5-0.9c0.8,0,1.7,0,2.5,0c0.1,0,0.2,0,0.4,0c0.2,0,0.3,0.1,0.3,0.4c0,0.2,0,0.3-0.1,0.5
					c-0.3,0.2-0.7,0.1-0.9,0.2c-0.1,0.2-0.1,0.5-0.1,0.7c0,0.8,0,1.6,0,2.4c0,2.3,0,4.6,0,6.9c0,0.2,0,0.4,0,0.5
					c0,0.2,0.1,0.3,0.3,0.3c0.1,0,0.2,0,0.4,0c1,0,2,0,3,0c1.1,0,1.9-0.5,2.4-1.5c0.1-0.2,0.2-0.5,0.3-0.7c0.1-0.2,0.3-0.3,0.5-0.2
					c0.2,0.1,0.3,0.2,0.3,0.4c0,0.1,0,0.2-0.1,0.3c-0.2,0.8-0.4,1.6-0.6,2.4c0,0.1,0,0.1-0.1,0.2c0,0-0.1,0-0.1,0.1c0,0,0,0-0.1,0
					c-3,0-5.9,0-8.9,0c-0.1,0-0.1,0-0.2,0C240.6,154.8,240.7,154.6,240.8,154.3z"/>
				<path d="M103.2,143.2c-0.3,0-0.6-0.1-0.9-0.1c-0.1-0.3-0.1-0.5,0-0.8c0.2-0.1,0.4-0.1,0.7-0.1c0.9,0,1.7,0,2.6,0
					c0.1,0,0.2,0,0.3,0c0.3,0.1,0.4,0.2,0.4,0.5c0,0.1-0.1,0.2-0.1,0.4c-0.3,0-0.6,0.1-0.9,0.1c-0.1,0.2-0.1,0.4-0.1,0.5
					c-0.1,3.3-0.1,6.6,0,9.9c0,0.2,0,0.3,0,0.5c0.3,0.1,0.7,0.1,1,0.2c0.1,0.3,0.1,0.5,0.1,0.8c-0.3,0.1-0.7,0.1-1,0.1
					c-0.3,0-0.7,0-1,0c-0.3,0-0.6,0-1,0c-0.3,0-0.7,0-1,0c-0.1-0.3,0-0.5,0-0.8c0.3-0.2,0.6-0.1,0.9-0.2c0-0.1,0.1-0.2,0.1-0.3
					c0-0.4,0.1-0.7,0.1-1.1c0-2.8,0-5.7,0-8.5C103.3,143.9,103.3,143.5,103.2,143.2z"/>
				<path d="M198.3,154.3c0,0.2,0,0.3,0,0.4c0,0.1,0,0.2,0,0.4c-0.1,0-0.2,0-0.3,0c-1.1,0-2.1,0-3.2,0c-0.1,0-0.2,0-0.3,0
					c-0.2,0-0.3-0.1-0.3-0.3c0-0.2,0.1-0.3,0.1-0.5c0.3-0.2,0.6-0.1,1-0.2c0-0.1,0-0.2,0-0.3c0.1-2.5,0-10.1,0-10.6
					c-0.2-0.1-0.4,0-0.6-0.1c-0.4,0-0.6-0.3-0.4-0.7c0-0.1,0.1-0.2,0.2-0.2c0.1,0,0.2-0.1,0.4-0.1c0.9,0,1.8,0,2.7,0
					c0.2,0,0.3,0,0.5,0.1c0.2,0,0.2,0.1,0.2,0.3c0,0.2,0,0.4-0.2,0.6c-0.3,0-0.6,0.1-1,0.1c-0.1,0.3-0.1,0.6-0.1,0.9
					c0,0.9,0,1.8,0,2.7c0,2.1,0,4.2,0,6.3c0,0.2,0,0.5,0,0.7c0,0.2,0.1,0.3,0.3,0.3C197.7,154.2,198,154.2,198.3,154.3z"/>
				<path d="M132.5,74.3c0.5-0.1,3.8,0,4.3,0c0,0.1,0,0.2,0,0.3c0,0.6,0,1.2,0,1.7c0.1,0.6-0.2,1.1-0.7,1.5c-0.3,0.3-0.7,0.5-1,0.8
					c-0.6,0.5-1.2,1-1.8,1.4c-0.2,0.1-0.4,0.3-0.6,0.4c-0.2-0.5-0.2-1-0.2-1.4C132.4,76.9,132.4,75,132.5,74.3z"/>
				<path class="st0" d="M147.5,143.2c0.2,0,0.3-0.1,0.5-0.1c0.7,0,1.4,0,2.1,0c0.4,0,0.8,0.1,1.2,0.2c0.9,0.3,1.5,1,1.5,2
					c0,1-0.4,1.9-1.6,2.3c-0.4,0.1-0.8,0.2-1.2,0.2c-0.8,0-1.5,0-2.3,0c-0.1,0-0.1,0-0.2,0c0-0.1,0-0.2,0-0.2c0-1.4,0-2.8,0-4.2
					C147.5,143.4,147.5,143.3,147.5,143.2z"/>
				<path class="st0" d="M148.1,131.6c0-1.5,0-3,0-4.5c0-0.2,0-0.5,0-0.7c0-0.3,0.2-0.4,0.4-0.4c0,0,0.1,0,0.1,0
					c1,0,2.1,0.1,3.1,0.5c1.8,0.8,2.8,2.1,3,4c0.1,1.1,0,2.1-0.2,3.1c-0.3,1.1-0.9,1.9-1.8,2.5c-0.6,0.4-1.3,0.6-2.1,0.8
					c-0.6,0.1-1.3,0.2-1.9,0.1c0,0-0.1,0-0.1,0c-0.4,0-0.5-0.1-0.5-0.5c0-0.2,0-0.4,0-0.5C148.1,134.6,148.1,133.1,148.1,131.6
					C148.1,131.6,148.1,131.6,148.1,131.6z"/>
				<path class="st0" d="M202.3,148.5c0-0.8,0.1-1.7,0.4-2.5c0.4-1.2,1.1-2.1,2.3-2.7c1-0.5,2.1-0.5,3.1-0.2
					c0.8,0.3,1.4,0.8,1.8,1.5c0.4,0.7,0.7,1.4,0.9,2.1c0.1,0.5,0.1,0.9,0.2,1.4c0.1,0.4,0,0.9-0.1,1.3c-0.1,0.6-0.2,1.2-0.3,1.8
					c-0.3,1.4-1.6,2.9-3.7,3.1c-0.5,0-1-0.1-1.5-0.3c-1.5-0.6-2.4-1.7-2.8-3.3C202.4,150,202.3,149.3,202.3,148.5z"/>
				<path class="st0" d="M186.9,125.9c1.5,0,2.7,0.6,3.4,1.9c0.5,0.8,0.7,1.7,0.8,2.7c0,0.2,0,0.4,0.1,0.6c0.1,0.4,0,0.8-0.1,1.3
					c-0.1,0.6-0.2,1.3-0.3,1.9c-0.4,1.7-1.8,2.9-3.6,3.1c-0.7,0.1-1.4-0.1-2.1-0.5c-0.9-0.5-1.6-1.2-2-2.2c-0.3-0.7-0.4-1.5-0.5-2.2
					c-0.1-1.2-0.1-2.4,0.3-3.5c0.4-1.3,1.3-2.3,2.6-2.8C186,126,186.4,125.9,186.9,125.9z"/>
				<path class="st0" d="M232.9,144c0.1,0.1,0.1,0.1,0.2,0.1c0.7,1.7,1.3,3.4,2,5.1c0,0,0,0.1,0,0.2c-1.4,0-2.8,0-4.3,0
					c0-0.1,0-0.2,0.1-0.3c0.6-1.6,1.3-3.2,1.9-4.9C232.8,144.2,232.8,144.2,232.9,144z"/>
				<path class="st0" d="M176.6,149.5c-1.4,0-2.8,0-4.2,0c0-0.1,0-0.2,0-0.3c0.6-1.7,1.3-3.3,2.1-4.9c0,0,0.1-0.1,0.1-0.1
					c0,0,0.1,0.1,0.1,0.1C175.3,145.8,176.5,149,176.6,149.5z"/>
				<path class="st0" d="M135.5,132.4c0-0.1,0-0.2,0.1-0.3c0.7-1.7,1.3-3.3,2-5c0,0,0.1,0,0.1,0c0,0,0.1,0.1,0.1,0.2
					c0.4,0.9,1.9,4.8,1.9,5.2c0,0,0,0,0,0c0,0,0,0,0,0c-1.3,0-2.6,0-3.9,0C135.7,132.5,135.6,132.4,135.5,132.4
					C135.5,132.4,135.5,132.4,135.5,132.4z"/>
			</g>
		</g>
	</g>
</g>
</svg>
